<svg xmlns="http://www.w3.org/2000/svg" width="1000" height="400" viewBox="0 0 1000 400"><defs><filter id="sh" x="-10%" y="-10%" width="120%" height="135%"><feDropShadow dx="0" dy="6" stdDeviation="7" flood-color="#E85A9B" flood-opacity=".17"/></filter>
<linearGradient id="card" x1="0" y1="0" x2="0" y2="1"><stop offset="0" stop-color="#FFFFFF"/><stop offset="1" stop-color="#FFF0F7"/></linearGradient>
<linearGradient id="shim" x1="0" x2="1"><stop offset="0" stop-color="#fff" stop-opacity="0"/><stop offset=".5" stop-color="#fff" stop-opacity=".85"/><stop offset="1" stop-color="#fff" stop-opacity="0"/></linearGradient>
<linearGradient id="pg" x1="0" x2="1"><stop offset="0" stop-color="#E85A9B"/><stop offset="1" stop-color="#B98BE8"/></linearGradient><clipPath id="ab"><rect x="0" y="0" width="1000" height="400" rx="30"/></clipPath></defs><style>text{font-family:'Segoe UI',system-ui,-apple-system,Helvetica,Arial,sans-serif}</style><rect x="3" y="3" width="994" height="394" rx="30" fill="url(#card)" stroke="#F8D4E6" stroke-width="3" filter="url(#sh)"/><g clip-path="url(#ab)"><rect x="-90" y="-10" width="70" height="420" fill="url(#shim)" opacity=".7" transform="skewX(-18)"><animateTransform attributeName="transform" type="translate" additive="sum" values="0 0;0 0;1160 0" keyTimes="0;.55;1" dur="9s" begin="1s" repeatCount="indefinite"/></rect></g><path transform="translate(60.0,84)" d="M46.1 -8.2Q46.1 -6.4 45.2 -5.3Q40.7 0.2 35.5 0.2Q31.1 0.2 28.4 -3.2Q25.7 -6.7 25.7 -13.1Q25.7 -14.7 25.9 -16.2Q22.8 -15.7 19.2 -15.4Q16.8 -15.2 16 -15.2Q15 -10.5 13.4 -3.7Q12.4 0.3 9.7 0.3Q6.8 0.3 6.8 -2.3Q6.8 -2.9 7 -4Q8.6 -10.3 9.5 -14.7L7.3 -14.6Q5.8 -14.6 5.1 -15.1Q4.4 -15.6 4.4 -16.8Q4.4 -18.4 5.2 -19.1Q6.1 -19.8 8.1 -19.9L10.6 -20Q11.8 -26.4 11.8 -29.9Q11.8 -32 11.1 -32.8Q10.5 -33.6 9.4 -33.6Q6.2 -33.6 2.2 -28.2Q1.6 -27.4 0.8 -27.4Q0.2 -27.4 -0.3 -28Q-0.7 -28.6 -0.7 -29.5Q-0.7 -31 0.4 -32.6Q2.4 -35.4 5.5 -37.2Q8.6 -39 11.8 -39Q14.8 -39 16.4 -37Q18 -34.9 18 -30.6Q18 -26.8 16.9 -20.2L21.4 -20.5Q24.3 -20.6 26.4 -20.9Q27.2 -26 28.9 -30.4Q30.6 -34.8 33.2 -37.6Q35.7 -40.3 38.8 -40.3Q41.1 -40.3 42.5 -38.5Q43.8 -36.7 43.8 -33.8Q43.8 -22.4 32.2 -17.9Q32 -16.1 32 -14.1Q32 -9.3 33.2 -7.3Q34.4 -5.2 36.6 -5.2Q38.5 -5.2 40 -6.2Q41.6 -7.2 43.6 -9.6Q44.1 -10.3 44.8 -10.3Q45.4 -10.3 45.7 -9.7Q46.1 -9.2 46.1 -8.2ZM32.7 -22.5Q36.4 -24.1 38.1 -26.9Q39.9 -29.7 39.9 -34.1Q39.9 -35.1 39.5 -35.7Q39.1 -36.3 38.6 -36.3Q37.6 -36.3 36.5 -34.5Q35.3 -32.7 34.3 -29.5Q33.3 -26.3 32.7 -22.5Z M44.5 -27.9Q44.5 -29.5 45.8 -30.6Q47.1 -31.6 48.9 -31.6Q50.6 -31.6 51.7 -30.8Q52.8 -30 52.8 -28.5Q52.8 -26.6 51.6 -25.6Q50.4 -24.5 48.4 -24.5Q46.5 -24.5 45.5 -25.4Q44.5 -26.3 44.5 -27.9ZM42.3 -7.5Q42.3 -9.6 42.8 -12.8Q43.4 -16.1 44.2 -18.9Q44.6 -20.3 45.3 -20.9Q46 -21.4 47.5 -21.4Q49.9 -21.4 49.9 -19.9Q49.9 -18.7 49 -14.5Q47.9 -9.5 47.9 -7.7Q47.9 -6.3 48.3 -5.6Q48.6 -4.8 49.5 -4.8Q50.3 -4.8 51.6 -6Q52.8 -7.1 54.9 -9.6Q55.4 -10.3 56.1 -10.3Q56.7 -10.3 57.1 -9.7Q57.4 -9.2 57.4 -8.2Q57.4 -6.3 56.5 -5.3Q52 0.2 48 0.2Q45 0.2 43.7 -1.9Q42.3 -4 42.3 -7.5Z M52.2 5.3Q52.2 4.9 52.3 4.4Q52.9 2.3 53.1 0.5Q53.4 -1.3 53.4 -3.5Q53.4 -5.8 54.4 -7.1Q55.5 -8.3 57.2 -8.3Q58.9 -8.3 59.7 -7.4Q60.6 -6.5 60.6 -5Q60.6 -3.4 59.6 -0.7Q58.6 1.9 57.3 4.5Q56.3 6.2 55.8 6.7Q55.3 7.3 54.4 7.3Q53.4 7.3 52.8 6.8Q52.2 6.3 52.2 5.3Z  M101.1 -36.8Q101.1 -35.3 100.1 -34.4Q99.2 -33.5 97.5 -33.5Q94.9 -33.5 93.5 -33.4Q93.4 -32.9 92.6 -28.5Q91.8 -23.6 91.6 -22.4L90.7 -16.4Q89.7 -9.7 89.1 -5.1Q90 -5.2 91.7 -5.2Q94.1 -5.2 95 -4.5Q95.9 -3.9 95.9 -2.6Q95.9 -1.4 94.9 -0.6Q94 0.3 92.3 0.3Q91.1 0.3 88.6 0.2Q86.3 0.1 85.6 0.1Q82.7 0.1 79.3 0.6Q77.7 0.8 77.1 0.8Q76.1 0.8 75.4 0.3Q74.7 -0.3 74.7 -1.3Q74.7 -3 76.2 -3.9Q77.6 -4.8 80.3 -4.9L82.5 -4.9L82.6 -5.9Q83.7 -13.3 84.2 -16.3L85.2 -22.4Q86.2 -27.7 86.9 -33.4L83 -33.3Q81.4 -33.3 80.8 -33.8Q80.1 -34.4 80.1 -35.3Q80.1 -38.5 84.6 -38.7Q86.8 -38.8 89.8 -38.8L98.2 -38.7Q99.4 -38.7 100.2 -38.2Q101.1 -37.6 101.1 -36.8Z M103.5 -25.8 104.4 -34.6Q104.9 -38.8 108.4 -38.8Q111.5 -38.8 111.5 -36Q111.5 -35.3 111.2 -34.3L109.4 -25.8Q109.1 -24.3 108.1 -23.7Q107.2 -23.1 106 -23.1Q104.9 -23.1 104.1 -23.7Q103.4 -24.3 103.5 -25.8Z M113.9 -7.5Q113.9 -13.5 115.6 -18.9Q116 -20.2 117 -20.8Q117.9 -21.4 119.6 -21.4Q120.5 -21.4 120.9 -21.2Q121.3 -21 121.3 -20.3Q121.3 -19.6 120.6 -17Q120.1 -15.2 119.8 -13.8Q119.6 -12.5 119.4 -10.4Q120.6 -14 122.3 -16.5Q124.1 -19 125.9 -20.2Q127.7 -21.4 129.3 -21.4Q130.9 -21.4 131.6 -20.7Q132.2 -20 132.2 -18.4Q132.2 -17 131.4 -13.1Q131 -11.5 130.9 -10.6Q133.2 -16.3 136 -18.9Q138.8 -21.4 141.2 -21.4Q144.2 -21.4 144.2 -18.4Q144.2 -16.7 143.2 -12Q142.3 -8 142.3 -6.7Q142.3 -4.8 143.7 -4.8Q144.6 -4.8 145.8 -6Q147.1 -7.1 149.2 -9.6Q149.8 -10.3 150.5 -10.3Q151.1 -10.3 151.4 -9.7Q151.8 -9.2 151.8 -8.2Q151.8 -6.3 150.9 -5.3Q148.9 -2.9 146.6 -1.3Q144.3 0.2 141.4 0.2Q139.1 0.2 137.9 -1.1Q136.7 -2.5 136.7 -5.1Q136.7 -6.3 137.4 -9.7Q138 -12.6 138 -13.7Q138 -14.4 137.4 -14.4Q136.8 -14.4 135.7 -12.9Q134.6 -11.3 133.5 -8.8Q132.4 -6.3 131.7 -3.4Q131.2 -1.2 130.6 -0.5Q129.9 0.2 128.4 0.2Q126.9 0.2 126.2 -1.2Q125.4 -2.7 125.4 -4.7Q125.4 -6.5 125.9 -9.8Q126.2 -12.7 126.2 -13.7Q126.2 -14.4 125.7 -14.4Q125 -14.4 124 -12.7Q122.9 -11.1 121.9 -8.5Q120.9 -5.9 120.3 -3.4Q119.8 -1.3 119.2 -0.5Q118.5 0.2 117.1 0.2Q115.3 0.2 114.6 -1.6Q113.9 -3.4 113.9 -7.5Z  M161 -16Q161 -22.8 163.5 -28Q166.1 -33.3 170.4 -36.1Q174.8 -39 180.1 -39Q185.1 -39 187.7 -36.5Q190.3 -33.9 190.3 -29.7Q190.3 -26.9 189.3 -25.2Q188.3 -23.5 186.4 -23.5Q185.1 -23.5 184.4 -24.1Q183.7 -24.7 183.7 -25.9Q183.7 -26.3 183.9 -27.4Q184.1 -28.8 184.1 -29.6Q184.1 -33.8 179.7 -33.8Q176.6 -33.8 173.9 -31.8Q171.1 -29.8 169.4 -26Q167.7 -22.1 167.7 -16.8Q167.7 -11.3 170.8 -8.3Q173.9 -5.3 179.9 -5.3Q182.9 -5.3 186 -6Q189 -6.8 192.7 -8.4Q193.4 -8.6 193.9 -8.6Q194.6 -8.6 195 -8.1Q195.4 -7.5 195.4 -6.7Q195.4 -3.9 192.3 -2.5Q189.1 -1.1 185.5 -0.4Q182 0.2 178.8 0.2Q173.4 0.2 169.3 -1.8Q165.3 -3.8 163.1 -7.5Q161 -11.1 161 -16Z M210.5 -8.2Q210.5 -6.3 209.6 -5.3Q207.6 -2.9 205.3 -1.3Q203 0.2 200.1 0.2Q196 0.2 194.1 -3.5Q192.1 -7.1 192.1 -13Q192.1 -18.6 193.5 -25.8Q195 -32.9 197.8 -38.1Q200.7 -43.2 204.6 -43.2Q206.8 -43.2 208 -41.2Q209.3 -39.1 209.3 -35.3Q209.3 -29.9 206.3 -22.6Q203.2 -15.4 198 -8.3Q198.4 -6.4 199.1 -5.6Q199.8 -4.8 201 -4.8Q202.9 -4.8 204.3 -5.9Q205.8 -7 208 -9.6Q208.5 -10.3 209.2 -10.3Q209.8 -10.3 210.2 -9.7Q210.5 -9.2 210.5 -8.2ZM197.7 -14.5Q201 -19.9 202.9 -25.3Q204.8 -30.7 204.8 -35.2Q204.8 -38.7 203.6 -38.7Q202.5 -38.7 201.2 -34.9Q199.8 -31.1 198.8 -25.4Q197.8 -19.7 197.7 -14.5Z M228.6 -8.2Q228.6 -6.3 227.7 -5.3Q226 -3.3 222.9 -1.5Q219.8 0.2 216.2 0.2Q211.4 0.2 208.7 -2.4Q206.1 -5 206.1 -9.6Q206.1 -12.7 207.4 -15.5Q208.7 -18.2 211.1 -19.8Q213.5 -21.4 216.5 -21.4Q219.1 -21.4 220.8 -19.8Q222.4 -18.3 222.4 -15.5Q222.4 -12.4 220.1 -10.1Q217.8 -7.8 212.4 -6.5Q213.5 -4.4 216.8 -4.4Q218.8 -4.4 221.5 -5.8Q224.1 -7.3 226 -9.6Q226.6 -10.3 227.3 -10.3Q227.9 -10.3 228.2 -9.7Q228.6 -9.2 228.6 -8.2ZM211.6 -10.2V-10.1Q214.4 -10.7 215.9 -12Q217.5 -13.3 217.5 -15Q217.5 -15.9 217 -16.4Q216.5 -16.9 215.7 -16.9Q214 -16.9 212.8 -14.9Q211.6 -13 211.6 -10.2Z M224.2 -7.3Q224.2 -10.9 226 -14.2Q227.7 -17.5 230.5 -19.5Q233.3 -21.5 236.5 -21.5Q237.5 -21.5 237.8 -21.1Q238.2 -20.7 238.4 -19.7Q239.4 -19.9 240.4 -19.9Q242.7 -19.9 242.7 -18.3Q242.7 -17.3 242 -13.7Q240.9 -8.4 240.9 -6.3Q240.9 -5.7 241.3 -5.2Q241.6 -4.8 242.2 -4.8Q243.1 -4.8 244.3 -6Q245.5 -7.1 247.7 -9.6Q248.2 -10.3 248.9 -10.3Q249.5 -10.3 249.8 -9.7Q250.2 -9.2 250.2 -8.2Q250.2 -6.3 249.3 -5.3Q247.4 -3 245.3 -1.4Q243.2 0.2 241.2 0.2Q239.7 0.2 238.4 -0.8Q237.2 -1.8 236.5 -3.6Q234.1 0.2 230.5 0.2Q227.7 0.2 226 -1.8Q224.2 -3.9 224.2 -7.3ZM235.4 -8.8 237.1 -17.2Q235.2 -17.2 233.6 -15.8Q231.9 -14.4 231 -12.1Q230 -9.8 230 -7.2Q230 -5.8 230.6 -5.1Q231.1 -4.4 232.2 -4.4Q233.2 -4.4 234.1 -5.6Q235 -6.8 235.4 -8.8Z M249.5 -12.5 249.5 -12.8Q250.3 -18 251.7 -24.6Q253 -31.1 254.1 -35.9Q254.9 -38.9 258.2 -38.9Q261.1 -38.9 261.1 -37Q261.1 -36.6 261 -36.1Q259.8 -31.2 257.8 -24.3Q255.8 -17.3 254 -12.2Q253.5 -10.8 251.6 -10.8Q250.7 -10.8 250.1 -11.2Q249.5 -11.6 249.5 -12.5ZM245.8 -3.8Q245.8 -5.8 247 -7.1Q248.1 -8.3 250.2 -8.3Q252.3 -8.3 253.3 -7.3Q254.3 -6.3 254.3 -4.4Q254.3 -2.3 253.1 -1Q251.9 0.2 249.9 0.2Q247.8 0.2 246.8 -0.9Q245.8 -2 245.8 -3.8Z" fill="#E85A9B" /><circle cx="78" cy="134" r="17" fill="#FFE3F1"/><g fill="none" stroke="#E85A9B" stroke-width="2.1" stroke-linecap="round" stroke-linejoin="round" transform="translate(66,122) scale(1.000)"><path d="M21.42 10.922a1 1 0 0 0-.019-1.838L12.83 5.18a2 2 0 0 0-1.66 0L2.6 9.08a1 1 0 0 0 0 1.832l8.57 3.908a2 2 0 0 0 1.66 0z" />
  <path d="M22 10v6" />
  <path d="M6 12.5V16a6 3 0 0 0 12 0v-3.5" /></g><text x="108" y="140" font-size="19" font-weight="600" fill="#704C5C">Computer Science Student</text><circle cx="78" cy="172" r="17" fill="#F3E8FF"/><g fill="none" stroke="#A874E0" stroke-width="2.1" stroke-linecap="round" stroke-linejoin="round" transform="translate(66,160) scale(1.000)"><path d="M20 13c0 5-3.5 7.5-7.66 8.95a1 1 0 0 1-.67-.01C7.5 20.5 4 18 4 13V6a1 1 0 0 1 1-1c2 0 4.5-1.2 6.24-2.72a1.17 1.17 0 0 1 1.52 0C14.51 3.81 17 5 19 5a1 1 0 0 1 1 1z" />
  <path d="m9 12 2 2 4-4" /></g><text x="108" y="178" font-size="19" font-weight="600" fill="#704C5C">Cybersecurity Specialization</text><circle cx="78" cy="210" r="17" fill="#FFF0F7"/><g fill="none" stroke="#F27FBC" stroke-width="2.1" stroke-linecap="round" stroke-linejoin="round" transform="translate(66,198) scale(1.000)"><path d="M12 18V5" />
  <path d="M15 13a4.17 4.17 0 0 1-3-4 4.17 4.17 0 0 1-3 4" />
  <path d="M17.598 6.5A3 3 0 1 0 12 5a3 3 0 1 0-5.598 1.5" />
  <path d="M17.997 5.125a4 4 0 0 1 2.526 5.77" />
  <path d="M18 18a4 4 0 0 0 2-7.464" />
  <path d="M19.967 17.483A4 4 0 1 1 12 18a4 4 0 1 1-7.967-.517" />
  <path d="M6 18a4 4 0 0 1-2-7.464" />
  <path d="M6.003 5.125a4 4 0 0 0-2.526 5.77" /></g><text x="108" y="216" font-size="19" font-weight="600" fill="#704C5C">AI + Security Projects</text><circle cx="78" cy="248" r="17" fill="#EBDDFB"/><g fill="none" stroke="#B98BE8" stroke-width="2.1" stroke-linecap="round" stroke-linejoin="round" transform="translate(66,236) scale(1.000)"><path d="m18 16 4-4-4-4" />
  <path d="m6 8-4 4 4 4" />
  <path d="m14.5 4-5 16" /></g><text x="108" y="254" font-size="19" font-weight="600" fill="#704C5C">Software &amp; Web Development</text><circle cx="78" cy="286" r="17" fill="#FFE3F1"/><g fill="none" stroke="#E85A9B" stroke-width="2.1" stroke-linecap="round" stroke-linejoin="round" transform="translate(66,274) scale(1.000)"><path d="M3 3v16a2 2 0 0 0 2 2h16" />
  <path d="M18 17V9" />
  <path d="M13 17V5" />
  <path d="M8 17v-3" /></g><text x="108" y="292" font-size="19" font-weight="600" fill="#704C5C">Data &amp; Machine Learning</text><circle cx="78" cy="324" r="17" fill="#F3E8FF"/><g fill="none" stroke="#A874E0" stroke-width="2.1" stroke-linecap="round" stroke-linejoin="round" transform="translate(66,312) scale(1.000)"><path d="M12 15v5s3.03-.55 4-2c1.08-1.62 0-5 0-5" />
  <path d="M4.5 16.5c-1.5 1.26-2 5-2 5s3.74-.5 5-2c.71-.84.7-2.13-.09-2.91a2.18 2.18 0 0 0-2.91-.09" />
  <path d="M9 12a22 22 0 0 1 2-3.95A12.88 12.88 0 0 1 22 2c0 2.72-.78 7.5-6 11a22.4 22.4 0 0 1-4 2z" />
  <path d="M9 12H4s.55-3.03 2-4c1.62-1.08 5 .05 5 .05" /></g><text x="108" y="330" font-size="19" font-weight="600" fill="#704C5C">Building solutions for real-world problems</text><rect x="60" y="352" width="136" height="30" rx="15" fill="#E85A9B"/><text x="128" y="372" text-anchor="middle" font-size="12.5" font-weight="800" letter-spacing="2" fill="#fff">BUILDING</text><rect x="210" y="352" width="136" height="30" rx="15" fill="#FCAFDB"/><text x="278" y="372" text-anchor="middle" font-size="12.5" font-weight="800" letter-spacing="2" fill="#fff">LEARNING</text><rect x="360" y="352" width="136" height="30" rx="15" fill="#B98BE8"/><text x="428" y="372" text-anchor="middle" font-size="12.5" font-weight="800" letter-spacing="2" fill="#fff">EXPLORING</text><circle cx="770" cy="175" r="118" fill="none" stroke="#FCAFDB" stroke-width="2" stroke-dasharray="3 9" opacity=".8"/><circle cx="770" cy="175" r="86" fill="#FFE3F1" opacity=".9"/><g transform="translate(770,175)"><g><animateTransform attributeName="transform" type="rotate" from="0" to="360" dur="28s" repeatCount="indefinite"/><g transform="translate(118.0,0.0)"><g><animateTransform attributeName="transform" type="rotate" from="0" to="-360" dur="28s" repeatCount="indefinite"/><circle r="21" fill="#fff" stroke="#E85A9B" stroke-width="2"/><g fill="none" stroke="#E85A9B" stroke-width="2" stroke-linecap="round" stroke-linejoin="round" transform="translate(-11,-11) scale(0.917)"><path d="M12 18V5" />
  <path d="M15 13a4.17 4.17 0 0 1-3-4 4.17 4.17 0 0 1-3 4" />
  <path d="M17.598 6.5A3 3 0 1 0 12 5a3 3 0 1 0-5.598 1.5" />
  <path d="M17.997 5.125a4 4 0 0 1 2.526 5.77" />
  <path d="M18 18a4 4 0 0 0 2-7.464" />
  <path d="M19.967 17.483A4 4 0 1 1 12 18a4 4 0 1 1-7.967-.517" />
  <path d="M6 18a4 4 0 0 1-2-7.464" />
  <path d="M6.003 5.125a4 4 0 0 0-2.526 5.77" /></g></g></g><g transform="translate(59.0,102.2)"><g><animateTransform attributeName="transform" type="rotate" from="0" to="-360" dur="28s" repeatCount="indefinite"/><circle r="21" fill="#fff" stroke="#A874E0" stroke-width="2"/><g fill="none" stroke="#A874E0" stroke-width="2" stroke-linecap="round" stroke-linejoin="round" transform="translate(-11,-11) scale(0.917)"><path d="m18 16 4-4-4-4" />
  <path d="m6 8-4 4 4 4" />
  <path d="m14.5 4-5 16" /></g></g></g><g transform="translate(-59.0,102.2)"><g><animateTransform attributeName="transform" type="rotate" from="0" to="-360" dur="28s" repeatCount="indefinite"/><circle r="21" fill="#fff" stroke="#F27FBC" stroke-width="2"/><g fill="none" stroke="#F27FBC" stroke-width="2" stroke-linecap="round" stroke-linejoin="round" transform="translate(-11,-11) scale(0.917)"><rect width="18" height="11" x="3" y="11" rx="2" ry="2" />
  <path d="M7 11V7a5 5 0 0 1 10 0v4" /></g></g></g><g transform="translate(-118.0,0.0)"><g><animateTransform attributeName="transform" type="rotate" from="0" to="-360" dur="28s" repeatCount="indefinite"/><circle r="21" fill="#fff" stroke="#B98BE8" stroke-width="2"/><g fill="none" stroke="#B98BE8" stroke-width="2" stroke-linecap="round" stroke-linejoin="round" transform="translate(-11,-11) scale(0.917)"><path d="M12 20v-9" />
  <path d="M14 7a4 4 0 0 1 4 4v3a6 6 0 0 1-12 0v-3a4 4 0 0 1 4-4z" />
  <path d="M14.12 3.88 16 2" />
  <path d="M21 21a4 4 0 0 0-3.81-4" />
  <path d="M21 5a4 4 0 0 1-3.55 3.97" />
  <path d="M22 13h-4" />
  <path d="M3 21a4 4 0 0 1 3.81-4" />
  <path d="M3 5a4 4 0 0 0 3.55 3.97" />
  <path d="M6 13H2" />
  <path d="m8 2 1.88 1.88" />
  <path d="M9 7.13V6a3 3 0 1 1 6 0v1.13" /></g></g></g><g transform="translate(-59.0,-102.2)"><g><animateTransform attributeName="transform" type="rotate" from="0" to="-360" dur="28s" repeatCount="indefinite"/><circle r="21" fill="#fff" stroke="#E85A9B" stroke-width="2"/><g fill="none" stroke="#E85A9B" stroke-width="2" stroke-linecap="round" stroke-linejoin="round" transform="translate(-11,-11) scale(0.917)"><path d="M17.5 19H9a7 7 0 1 1 6.71-9h1.79a4.5 4.5 0 1 1 0 9Z" /></g></g></g><g transform="translate(59.0,-102.2)"><g><animateTransform attributeName="transform" type="rotate" from="0" to="-360" dur="28s" repeatCount="indefinite"/><circle r="21" fill="#fff" stroke="#A874E0" stroke-width="2"/><g fill="none" stroke="#A874E0" stroke-width="2" stroke-linecap="round" stroke-linejoin="round" transform="translate(-11,-11) scale(0.917)"><path d="m21 21-4.34-4.34" />
  <circle cx="11" cy="11" r="8" /></g></g></g></g></g><g transform="translate(770,175)"><g><animateTransform attributeName="transform" type="scale" values="1;1.08;1" dur="3s" repeatCount="indefinite"/><circle r="54" fill="url(#pg)"/><g fill="none" stroke="#fff" stroke-width="1.8" stroke-linecap="round" stroke-linejoin="round" transform="translate(-30,-30) scale(2.500)"><path d="M20 13c0 5-3.5 7.5-7.66 8.95a1 1 0 0 1-.67-.01C7.5 20.5 4 18 4 13V6a1 1 0 0 1 1-1c2 0 4.5-1.2 6.24-2.72a1.17 1.17 0 0 1 1.52 0C14.51 3.81 17 5 19 5a1 1 0 0 1 1 1z" />
  <path d="m9 12 2 2 4-4" /></g></g></g><path transform="translate(632.9,338)" d="M22.6 -19.4Q22.6 -18.5 22.1 -18.2Q21.7 -17.8 20.7 -17.9Q18.4 -18 17.1 -18.1Q15.9 -18.2 13.8 -18.2Q12.9 -13.6 12.1 -8.9Q11.9 -7.2 11.6 -5Q11.2 -2.8 11.2 -1.4Q11.1 -0.7 10.6 -0.3Q10 0.1 9.2 0.1Q8.4 0.1 8 -0.3Q7.5 -0.7 7.5 -1.3Q7.5 -1.9 7.7 -3.3Q7.9 -4.7 8.1 -6.2Q8.4 -7.8 8.6 -8.9Q8.8 -10.8 9.2 -12.7Q9.5 -14.5 9.9 -16.2Q10 -16.6 10.1 -17.1Q10.2 -17.6 10.3 -18.2Q7.8 -18.1 6.4 -17.8Q5 -17.4 4.4 -16.8Q3.9 -16.2 3.9 -15.3Q3.9 -14.5 4.4 -13.7Q4.5 -13.5 4.5 -13.3Q4.5 -12.9 3.9 -12.4Q3.3 -12 2.7 -12Q2.3 -12 2 -12.3Q1.5 -12.7 1.2 -13.5Q0.9 -14.3 0.9 -15.3Q0.9 -17.4 2.3 -18.7Q3.7 -20 6.5 -20.6Q9.3 -21.2 13.8 -21.2Q16.5 -21.2 18.2 -21.1Q19.8 -21 21 -20.8Q21.8 -20.6 22.2 -20.2Q22.6 -19.9 22.6 -19.4Z M18.6 -3.5Q18.6 -5.4 18.9 -6.9Q19.1 -8.5 19.7 -10.2Q20 -11 20.4 -11.3Q20.9 -11.7 21.8 -11.7Q22.4 -11.7 22.6 -11.5Q22.8 -11.3 22.8 -11Q22.8 -10.8 22.5 -9.6Q22.3 -8.7 22.1 -7.9Q21.6 -5.3 21.6 -4.4Q21.6 -3.9 21.8 -3.7Q21.9 -3.5 22.2 -3.5Q22.5 -3.5 23.1 -4.2Q23.7 -5 24.3 -6.5Q24.9 -8 25.5 -10.2Q25.7 -11 26.1 -11.3Q26.6 -11.7 27.4 -11.7Q28 -11.7 28.2 -11.5Q28.4 -11.4 28.4 -11Q28.4 -10.4 27.8 -7.6Q27.1 -4.4 27.1 -3.6Q27.1 -3.2 27.3 -2.9Q27.5 -2.6 27.8 -2.6Q28.3 -2.6 29 -3.2Q29.7 -3.9 30.8 -5.2Q31.1 -5.6 31.5 -5.6Q31.8 -5.6 32 -5.3Q32.2 -5 32.2 -4.5Q32.2 -3.5 31.7 -2.9Q30.7 -1.6 29.4 -0.7Q28.2 0.1 26.6 0.1Q25.4 0.1 24.8 -0.8Q24.3 -1.7 24.3 -3.4Q23.9 -1.7 23 -0.8Q22.2 0.1 21.2 0.1Q20.1 0.1 19.3 -0.9Q18.6 -2 18.6 -3.5Z M30.2 -4.1Q30.2 -7.3 31.2 -10.2Q31.4 -11 31.9 -11.3Q32.4 -11.7 33.3 -11.7Q33.8 -11.7 34 -11.5Q34.2 -11.4 34.2 -11.1Q34.2 -10.7 33.9 -9.2Q33.6 -8.2 33.5 -7.5Q33.3 -6.8 33.2 -5.7Q34 -7.8 35.1 -9.2Q36.1 -10.5 37.1 -11.1Q38.1 -11.7 38.9 -11.7Q40.5 -11.7 40.5 -10Q40.5 -9.7 40.3 -8.5Q40.1 -7.5 40.1 -7.2Q40.1 -6.3 40.7 -6.3Q41.4 -6.3 42.5 -7.4Q42.8 -7.8 43.2 -7.8Q43.5 -7.8 43.7 -7.5Q43.9 -7.2 43.9 -6.7Q43.9 -5.8 43.4 -5.2Q42.7 -4.5 41.7 -4Q40.8 -3.5 39.8 -3.5Q38.4 -3.5 37.7 -4.2Q37.1 -4.9 37.1 -6Q37.1 -6.4 37.1 -6.8Q37.2 -7.2 37.2 -7.4Q37.2 -7.8 36.9 -7.8Q36.5 -7.8 35.9 -7Q35.3 -6.2 34.7 -4.8Q34.1 -3.4 33.7 -1.9Q33.5 -0.7 33.1 -0.3Q32.7 0.1 32 0.1Q31 0.1 30.6 -0.9Q30.2 -1.9 30.2 -4.1Z M41.6 -4.1Q41.6 -7.3 42.5 -10.2Q42.8 -11 43.3 -11.3Q43.8 -11.7 44.7 -11.7Q45.2 -11.7 45.4 -11.5Q45.6 -11.4 45.6 -11.1Q45.6 -10.7 45.2 -9.2Q45 -8.2 44.8 -7.5Q44.7 -6.8 44.6 -5.7Q45.4 -7.8 46.4 -9.2Q47.5 -10.5 48.4 -11.1Q49.4 -11.7 50.2 -11.7Q51.9 -11.7 51.9 -10Q51.9 -9.1 51.3 -6.5Q50.9 -4.3 50.9 -3.6Q50.9 -2.6 51.6 -2.6Q52.1 -2.6 52.8 -3.2Q53.5 -3.9 54.6 -5.2Q54.9 -5.6 55.3 -5.6Q55.6 -5.6 55.8 -5.3Q56 -5 56 -4.5Q56 -3.5 55.5 -2.9Q54.4 -1.6 53.2 -0.7Q52 0.1 50.4 0.1Q49.1 0.1 48.5 -0.6Q47.8 -1.4 47.8 -2.8Q47.8 -3.5 48.2 -5.2Q48.5 -6.8 48.5 -7.4Q48.5 -7.8 48.2 -7.8Q47.9 -7.8 47.3 -7Q46.7 -6.2 46.1 -4.8Q45.5 -3.4 45.1 -1.9Q44.8 -0.7 44.5 -0.3Q44.1 0.1 43.3 0.1Q42.4 0.1 42 -0.9Q41.6 -1.9 41.6 -4.1Z M55.1 -15.2Q55.1 -16 55.8 -16.6Q56.5 -17.2 57.5 -17.2Q58.5 -17.2 59 -16.8Q59.6 -16.3 59.6 -15.5Q59.6 -14.5 59 -13.9Q58.3 -13.3 57.2 -13.3Q56.2 -13.3 55.6 -13.8Q55.1 -14.3 55.1 -15.2ZM53.9 -4.1Q53.9 -5.2 54.2 -7Q54.5 -8.7 55 -10.2Q55.2 -11.1 55.5 -11.4Q55.9 -11.7 56.8 -11.7Q58 -11.7 58 -10.8Q58 -10.2 57.5 -7.9Q57 -5.2 57 -4.2Q57 -3.4 57.2 -3Q57.4 -2.6 57.8 -2.6Q58.3 -2.6 59 -3.2Q59.6 -3.9 60.8 -5.2Q61 -5.6 61.4 -5.6Q61.8 -5.6 61.9 -5.3Q62.1 -5 62.1 -4.5Q62.1 -3.5 61.6 -2.9Q59.2 0.1 57 0.1Q55.4 0.1 54.7 -1Q53.9 -2.2 53.9 -4.1Z M60.2 -4.1Q60.2 -7.3 61.1 -10.2Q61.3 -11 61.8 -11.3Q62.3 -11.7 63.3 -11.7Q63.8 -11.7 64 -11.5Q64.2 -11.4 64.2 -11.1Q64.2 -10.7 63.8 -9.2Q63.5 -8.2 63.4 -7.5Q63.2 -6.8 63.1 -5.7Q64 -7.8 65 -9.2Q66 -10.5 67 -11.1Q68 -11.7 68.8 -11.7Q70.4 -11.7 70.4 -10Q70.4 -9.1 69.9 -6.5Q69.4 -4.3 69.4 -3.6Q69.4 -2.6 70.1 -2.6Q70.6 -2.6 71.3 -3.2Q72 -3.9 73.2 -5.2Q73.5 -5.6 73.8 -5.6Q74.2 -5.6 74.3 -5.3Q74.5 -5 74.5 -4.5Q74.5 -3.5 74.1 -2.9Q73 -1.6 71.7 -0.7Q70.5 0.1 68.9 0.1Q67.7 0.1 67 -0.6Q66.4 -1.4 66.4 -2.8Q66.4 -3.5 66.7 -5.2Q67 -6.8 67 -7.4Q67 -7.8 66.8 -7.8Q66.4 -7.8 65.8 -7Q65.2 -6.2 64.6 -4.8Q64 -3.4 63.7 -1.9Q63.4 -0.7 63 -0.3Q62.7 0.1 61.9 0.1Q60.9 0.1 60.5 -0.9Q60.2 -1.9 60.2 -4.1Z M86 -4.4Q86 -3.9 85.8 -3.5Q85.7 -3.2 85.3 -3Q83.1 -1.5 82.1 -0.8L80.5 0.3Q79.6 5.5 78 8.4Q76.5 11.4 74.1 11.4Q72.8 11.4 72 10.6Q71.2 9.8 71.2 8.5Q71.2 6.8 72.7 4.7Q74 2.7 77.9 -0.3L78 -1.3Q77.6 -0.6 76.9 -0.2Q76.2 0.1 75.6 0.1Q74 0.1 73.1 -1Q72.2 -2.1 72.2 -4Q72.2 -6 73.1 -7.7Q74 -9.5 75.6 -10.6Q77.1 -11.7 78.8 -11.7Q79.4 -11.7 79.6 -11.5Q79.8 -11.3 79.9 -10.7Q80.3 -10.8 81 -10.8Q81.6 -10.8 81.9 -10.6Q82.1 -10.5 82.1 -9.9Q82.1 -9.6 82.1 -9.4Q82 -8.7 81.5 -5.5Q81.4 -4.9 81.3 -4.2Q81.2 -3.5 81 -2.7Q83 -4.2 84.7 -5.3Q85 -5.5 85.3 -5.5Q85.6 -5.5 85.8 -5.2Q86 -4.9 86 -4.4ZM78.3 -5.1 79.1 -9.4Q78.1 -9.3 77.2 -8.6Q76.3 -7.8 75.8 -6.6Q75.3 -5.3 75.3 -3.9Q75.3 -3.2 75.6 -2.8Q75.9 -2.4 76.5 -2.4Q77 -2.4 77.6 -3.1Q78.1 -3.8 78.3 -5.1ZM77.3 2.7Q75.4 4.3 74.5 5.7Q73.7 7 73.7 8Q73.7 8.4 73.9 8.7Q74 9 74.4 9Q75 9 75.8 7.5Q76.6 6 77.3 2.7Z  M90.7 -4.9Q90.7 -7 91.5 -8.5Q92.3 -10 93.6 -10.8Q94.9 -11.7 96.2 -11.7Q97.6 -11.7 98.4 -10.8Q99.2 -10 99.2 -8.8Q99.2 -7.7 98.7 -7Q98.2 -6.2 97.5 -6.2Q97 -6.2 96.7 -6.5Q96.4 -6.7 96.4 -7.1Q96.4 -7.3 96.5 -7.5Q96.5 -7.7 96.6 -7.8Q96.7 -8.2 96.7 -8.5Q96.7 -8.8 96.5 -9Q96.4 -9.2 96.1 -9.2Q95.5 -9.2 95 -8.7Q94.5 -8.2 94.2 -7.3Q93.9 -6.4 93.9 -5.4Q93.9 -2.5 96.4 -2.5Q97.4 -2.5 98.6 -3.2Q99.8 -3.9 101 -5.2Q101.2 -5.6 101.6 -5.6Q102 -5.6 102.1 -5.3Q102.3 -5 102.3 -4.5Q102.3 -3.5 101.9 -2.9Q100.7 -1.5 99 -0.7Q97.4 0.1 95.9 0.1Q93.4 0.1 92.1 -1.3Q90.7 -2.7 90.7 -4.9Z M100.3 -3.5Q100.3 -5.4 100.6 -6.9Q100.8 -8.5 101.4 -10.2Q101.6 -11 102.1 -11.3Q102.5 -11.7 103.5 -11.7Q104.1 -11.7 104.3 -11.5Q104.5 -11.3 104.5 -11Q104.5 -10.8 104.2 -9.6Q104 -8.7 103.8 -7.9Q103.3 -5.3 103.3 -4.4Q103.3 -3.9 103.4 -3.7Q103.6 -3.5 103.8 -3.5Q104.2 -3.5 104.8 -4.2Q105.3 -5 106 -6.5Q106.6 -8 107.2 -10.2Q107.4 -11 107.8 -11.3Q108.2 -11.7 109.1 -11.7Q109.6 -11.7 109.9 -11.5Q110.1 -11.4 110.1 -11Q110.1 -10.4 109.5 -7.6Q108.8 -4.4 108.8 -3.6Q108.8 -3.2 109 -2.9Q109.2 -2.6 109.5 -2.6Q110 -2.6 110.7 -3.2Q111.4 -3.9 112.5 -5.2Q112.8 -5.6 113.2 -5.6Q113.5 -5.6 113.7 -5.3Q113.9 -5 113.9 -4.5Q113.9 -3.5 113.4 -2.9Q112.3 -1.6 111.1 -0.7Q109.9 0.1 108.3 0.1Q107.1 0.1 106.5 -0.8Q106 -1.7 106 -3.4Q105.5 -1.7 104.7 -0.8Q103.8 0.1 102.9 0.1Q101.7 0.1 101 -0.9Q100.3 -2 100.3 -3.5Z M111.9 -4.1Q111.9 -7.3 112.8 -10.2Q113.1 -11 113.6 -11.3Q114.1 -11.7 115 -11.7Q115.5 -11.7 115.7 -11.5Q115.9 -11.4 115.9 -11.1Q115.9 -10.7 115.5 -9.2Q115.3 -8.2 115.1 -7.5Q115 -6.8 114.9 -5.7Q115.7 -7.8 116.7 -9.2Q117.8 -10.5 118.7 -11.1Q119.7 -11.7 120.6 -11.7Q122.2 -11.7 122.2 -10Q122.2 -9.7 122 -8.5Q121.8 -7.5 121.8 -7.2Q121.8 -6.3 122.4 -6.3Q123.1 -6.3 124.2 -7.4Q124.5 -7.8 124.9 -7.8Q125.2 -7.8 125.4 -7.5Q125.6 -7.2 125.6 -6.7Q125.6 -5.8 125.1 -5.2Q124.4 -4.5 123.4 -4Q122.5 -3.5 121.4 -3.5Q120.1 -3.5 119.4 -4.2Q118.7 -4.9 118.7 -6Q118.7 -6.4 118.8 -6.8Q118.9 -7.2 118.9 -7.4Q118.9 -7.8 118.6 -7.8Q118.2 -7.8 117.6 -7Q117 -6.2 116.4 -4.8Q115.8 -3.4 115.4 -1.9Q115.1 -0.7 114.8 -0.3Q114.4 0.1 113.6 0.1Q112.7 0.1 112.3 -0.9Q111.9 -1.9 111.9 -4.1Z M124.4 -15.2Q124.4 -16 125.1 -16.6Q125.8 -17.2 126.8 -17.2Q127.7 -17.2 128.3 -16.8Q128.9 -16.3 128.9 -15.5Q128.9 -14.5 128.2 -13.9Q127.6 -13.3 126.5 -13.3Q125.5 -13.3 124.9 -13.8Q124.4 -14.3 124.4 -15.2ZM123.2 -4.1Q123.2 -5.2 123.5 -7Q123.8 -8.7 124.2 -10.2Q124.5 -11.1 124.8 -11.4Q125.2 -11.7 126 -11.7Q127.3 -11.7 127.3 -10.8Q127.3 -10.2 126.8 -7.9Q126.2 -5.2 126.2 -4.2Q126.2 -3.4 126.4 -3Q126.6 -2.6 127.1 -2.6Q127.6 -2.6 128.2 -3.2Q128.9 -3.9 130 -5.2Q130.3 -5.6 130.7 -5.6Q131 -5.6 131.2 -5.3Q131.4 -5 131.4 -4.5Q131.4 -3.5 130.9 -2.9Q128.5 0.1 126.3 0.1Q124.7 0.1 123.9 -1Q123.2 -2.2 123.2 -4.1Z M142.8 -6.5Q142.8 -5.3 142.1 -5.1Q140.6 -4.6 138.8 -4.5Q138.3 -2.4 136.9 -1.1Q135.5 0.1 133.7 0.1Q132.2 0.1 131.2 -0.6Q130.1 -1.3 129.6 -2.5Q129 -3.7 129 -5.1Q129 -7 129.7 -8.5Q130.5 -10 131.7 -10.8Q133 -11.7 134.6 -11.7Q136.5 -11.7 137.6 -10.4Q138.8 -9.1 139 -7.1Q140.2 -7.2 141.8 -7.6Q142 -7.7 142.1 -7.7Q142.5 -7.7 142.6 -7.4Q142.8 -7 142.8 -6.5ZM136.1 -5.1Q135.3 -5.6 134.9 -6.4Q134.5 -7.3 134.5 -8.2Q134.5 -8.6 134.6 -9H134.5Q133.5 -9 132.8 -8.1Q132.1 -7.1 132.1 -5.4Q132.1 -4 132.7 -3.2Q133.2 -2.5 133.9 -2.5Q134.7 -2.5 135.3 -3.2Q135.9 -3.8 136.1 -5.1Z M142.6 -1.3Q142.6 -1.9 143.1 -2.4Q143.6 -2.9 144.5 -2.9Q144.8 -2.9 145.3 -2.8Q145.7 -2.8 145.9 -2.7Q145.9 -3.4 145.6 -4Q145.4 -4.5 145 -5.1Q144.6 -5.6 144.2 -6Q143.5 -4.5 142.7 -3.6Q141.9 -2.6 141 -1.7Q140.6 -1.2 140.1 -1.2Q139.7 -1.2 139.4 -1.5Q139.2 -1.8 139.2 -2.2Q139.2 -2.8 139.5 -3.2L139.9 -3.6Q141.2 -5.3 141.9 -6.4Q142.4 -7.1 142.9 -8.3Q143.5 -9.5 144.1 -10.8Q144.5 -11.9 146 -11.9Q146.7 -11.9 147 -11.8Q147.3 -11.7 147.3 -11.4Q147.3 -11.2 147.2 -10.9Q147.1 -10.6 146.9 -10.3Q146.5 -9.4 146.5 -8.8Q146.5 -8.4 146.7 -7.9Q147 -7.5 147.5 -6.8Q148.3 -5.8 148.7 -5Q149.2 -4.3 149.2 -3.4Q149.2 -3.2 149.1 -2.7Q150.3 -3.2 152 -5.2Q152.3 -5.6 152.7 -5.6Q153 -5.6 153.2 -5.3Q153.4 -5 153.4 -4.5Q153.4 -3.5 152.9 -2.9Q151.6 -1.4 150.5 -0.8Q149.4 -0.2 147.7 -0.2Q146.7 0.7 145.3 0.7Q144 0.7 143.3 0.1Q142.6 -0.5 142.6 -1.3Z M152.5 -15.2Q152.5 -16 153.2 -16.6Q153.9 -17.2 154.9 -17.2Q155.8 -17.2 156.4 -16.8Q157 -16.3 157 -15.5Q157 -14.5 156.3 -13.9Q155.7 -13.3 154.6 -13.3Q153.6 -13.3 153 -13.8Q152.5 -14.3 152.5 -15.2ZM151.3 -4.1Q151.3 -5.2 151.6 -7Q151.9 -8.7 152.3 -10.2Q152.6 -11.1 152.9 -11.4Q153.3 -11.7 154.1 -11.7Q155.4 -11.7 155.4 -10.8Q155.4 -10.2 154.9 -7.9Q154.3 -5.2 154.3 -4.2Q154.3 -3.4 154.5 -3Q154.7 -2.6 155.2 -2.6Q155.7 -2.6 156.3 -3.2Q157 -3.9 158.1 -5.2Q158.4 -5.6 158.8 -5.6Q159.1 -5.6 159.3 -5.3Q159.5 -5 159.5 -4.5Q159.5 -3.5 159 -2.9Q156.6 0.1 154.4 0.1Q152.8 0.1 152 -1Q151.3 -2.2 151.3 -4.1Z M169.3 -4.5Q169.3 -3.5 168.8 -2.9Q167.8 -1.6 166.5 -0.7Q165.2 0.1 163.6 0.1Q158.5 0.1 158.5 -7.1Q158.5 -8.2 158.6 -9.3H157.6Q156.8 -9.3 156.6 -9.6Q156.3 -9.8 156.3 -10.4Q156.3 -11.8 157.4 -11.8H158.8Q159.3 -14.6 160.2 -16.9Q161 -19.1 162.3 -20.5Q163.5 -21.8 164.9 -21.8Q166 -21.8 166.6 -20.9Q167.2 -20 167.2 -18.6Q167.2 -14.7 163.9 -11.8H166.7Q167.1 -11.8 167.3 -11.7Q167.5 -11.5 167.5 -11Q167.5 -9.3 164.7 -9.3H161.6Q161.6 -8 161.6 -7.3Q161.6 -4.7 162.2 -3.7Q162.8 -2.6 164.1 -2.6Q165.2 -2.6 166 -3.3Q166.8 -3.9 168 -5.2Q168.2 -5.6 168.6 -5.6Q169 -5.6 169.1 -5.3Q169.3 -5 169.3 -4.5ZM161.8 -12.2Q163.3 -13.5 164.1 -15.1Q164.8 -16.7 164.8 -17.9Q164.8 -19.4 164.2 -19.4Q163.9 -19.4 163.4 -18.5Q163 -17.6 162.5 -15.9Q162.1 -14.2 161.8 -12.2Z M180.8 -4.4Q180.8 -3.9 180.6 -3.5Q180.5 -3.2 180.1 -3L175.3 0.3Q174.3 5.5 172.8 8.4Q171.3 11.4 168.9 11.4Q167.6 11.4 166.8 10.6Q166 9.8 166 8.5Q166 7.4 166.5 6.1Q167.1 4.9 168.5 3.3Q170 1.7 172.7 -0.3L172.8 -0.9Q172.9 -1.8 173.2 -3.6Q172.7 -1.8 171.8 -0.8Q170.9 0.1 169.9 0.1Q168.7 0.1 168 -0.9Q167.3 -2 167.3 -3.5Q167.3 -5.4 167.6 -6.9Q167.8 -8.5 168.4 -10.2Q168.6 -11 169.1 -11.3Q169.5 -11.7 170.5 -11.7Q171.1 -11.7 171.3 -11.5Q171.5 -11.3 171.5 -11Q171.5 -10.8 171.2 -9.6Q171 -8.7 170.8 -7.9Q170.6 -6.9 170.5 -6Q170.3 -5 170.3 -4.4Q170.3 -3.5 170.8 -3.5Q171.2 -3.5 171.8 -4.2Q172.3 -5 173 -6.5Q173.6 -8 174.2 -10.2Q174.4 -11 174.8 -11.3Q175.2 -11.7 176.1 -11.7Q176.6 -11.7 176.9 -11.5Q177.1 -11.4 177.1 -11Q177.1 -10.4 176.4 -6.7L175.8 -2.7Q177.7 -4.1 179.5 -5.3Q179.9 -5.5 180.1 -5.5Q180.4 -5.5 180.6 -5.2Q180.8 -4.9 180.8 -4.4ZM172.1 2.7Q170.2 4.3 169.3 5.6Q168.5 7 168.5 8Q168.5 8.4 168.6 8.7Q168.8 9 169.2 9Q169.8 9 170.6 7.5Q171.3 6.1 172.1 2.7Z  M187.1 -15.2Q187.1 -16 187.8 -16.6Q188.5 -17.2 189.5 -17.2Q190.4 -17.2 191 -16.8Q191.6 -16.3 191.6 -15.5Q191.6 -14.5 190.9 -13.9Q190.3 -13.3 189.2 -13.3Q188.1 -13.3 187.6 -13.8Q187.1 -14.3 187.1 -15.2ZM185.9 -4.1Q185.9 -5.2 186.2 -7Q186.5 -8.7 186.9 -10.2Q187.1 -11.1 187.5 -11.4Q187.9 -11.7 188.7 -11.7Q190 -11.7 190 -10.8Q190 -10.2 189.5 -7.9Q188.9 -5.2 188.9 -4.2Q188.9 -3.4 189.1 -3Q189.3 -2.6 189.8 -2.6Q190.2 -2.6 190.9 -3.2Q191.6 -3.9 192.7 -5.2Q193 -5.6 193.4 -5.6Q193.7 -5.6 193.9 -5.3Q194.1 -5 194.1 -4.5Q194.1 -3.5 193.6 -2.9Q191.1 0.1 189 0.1Q187.4 0.1 186.6 -1Q185.9 -2.2 185.9 -4.1Z M192.1 -4.1Q192.1 -7.3 193 -10.2Q193.3 -11 193.8 -11.3Q194.3 -11.7 195.2 -11.7Q195.7 -11.7 195.9 -11.5Q196.1 -11.4 196.1 -11.1Q196.1 -10.7 195.7 -9.2Q195.5 -8.2 195.3 -7.5Q195.2 -6.8 195.1 -5.7Q195.9 -7.8 196.9 -9.2Q198 -10.5 198.9 -11.1Q199.9 -11.7 200.8 -11.7Q202.4 -11.7 202.4 -10Q202.4 -9.1 201.8 -6.5Q201.4 -4.3 201.4 -3.6Q201.4 -2.6 202.1 -2.6Q202.6 -2.6 203.3 -3.2Q204 -3.9 205.1 -5.2Q205.4 -5.6 205.8 -5.6Q206.1 -5.6 206.3 -5.3Q206.5 -5 206.5 -4.5Q206.5 -3.5 206 -2.9Q204.9 -1.6 203.7 -0.7Q202.5 0.1 200.9 0.1Q199.6 0.1 199 -0.6Q198.3 -1.4 198.3 -2.8Q198.3 -3.5 198.7 -5.2Q199 -6.8 199 -7.4Q199 -7.8 198.7 -7.8Q198.4 -7.8 197.8 -7Q197.2 -6.2 196.6 -4.8Q196 -3.4 195.6 -1.9Q195.3 -0.7 195 -0.3Q194.6 0.1 193.8 0.1Q192.9 0.1 192.5 -0.9Q192.1 -1.9 192.1 -4.1Z M216.3 -4.5Q216.3 -3.5 215.8 -2.9Q214.8 -1.6 213.5 -0.7Q212.2 0.1 210.6 0.1Q205.4 0.1 205.4 -7.1Q205.4 -8.2 205.5 -9.3H204.6Q203.8 -9.3 203.5 -9.6Q203.3 -9.8 203.3 -10.4Q203.3 -11.8 204.4 -11.8H205.8Q206.2 -14.6 207.1 -16.9Q208 -19.1 209.2 -20.5Q210.5 -21.8 211.9 -21.8Q212.9 -21.8 213.6 -20.9Q214.2 -20 214.2 -18.6Q214.2 -14.7 210.9 -11.8H213.7Q214.1 -11.8 214.3 -11.7Q214.4 -11.5 214.4 -11Q214.4 -9.3 211.6 -9.3H208.6Q208.5 -8 208.5 -7.3Q208.5 -4.7 209.1 -3.7Q209.8 -2.6 211.1 -2.6Q212.2 -2.6 213 -3.3Q213.8 -3.9 214.9 -5.2Q215.2 -5.6 215.6 -5.6Q215.9 -5.6 216.1 -5.3Q216.3 -5 216.3 -4.5ZM208.8 -12.2Q210.3 -13.5 211 -15.1Q211.8 -16.7 211.8 -17.9Q211.8 -19.4 211.2 -19.4Q210.8 -19.4 210.4 -18.5Q209.9 -17.6 209.5 -15.9Q209.1 -14.2 208.8 -12.2Z M227.7 -6.5Q227.7 -5.3 227 -5.1Q225.5 -4.6 223.7 -4.5Q223.2 -2.4 221.8 -1.1Q220.4 0.1 218.6 0.1Q217.1 0.1 216.1 -0.6Q215 -1.3 214.5 -2.5Q213.9 -3.7 213.9 -5.1Q213.9 -7 214.6 -8.5Q215.4 -10 216.6 -10.8Q217.9 -11.7 219.5 -11.7Q221.4 -11.7 222.5 -10.4Q223.7 -9.1 223.9 -7.1Q225.1 -7.2 226.7 -7.6Q226.9 -7.7 227 -7.7Q227.4 -7.7 227.5 -7.4Q227.7 -7 227.7 -6.5ZM221 -5.1Q220.2 -5.6 219.8 -6.4Q219.4 -7.3 219.4 -8.2Q219.4 -8.6 219.5 -9H219.4Q218.4 -9 217.7 -8.1Q217 -7.1 217 -5.4Q217 -4 217.6 -3.2Q218.1 -2.5 218.8 -2.5Q219.6 -2.5 220.2 -3.2Q220.8 -3.8 221 -5.1Z  M231.8 -4.9Q231.8 -7 232.6 -8.5Q233.4 -10 234.7 -10.8Q235.9 -11.7 237.3 -11.7Q238.7 -11.7 239.5 -10.8Q240.2 -10 240.2 -8.8Q240.2 -7.7 239.8 -7Q239.3 -6.2 238.6 -6.2Q238.1 -6.2 237.8 -6.5Q237.5 -6.7 237.5 -7.1Q237.5 -7.3 237.6 -7.5Q237.6 -7.7 237.6 -7.8Q237.8 -8.2 237.8 -8.5Q237.8 -8.8 237.6 -9Q237.4 -9.2 237.1 -9.2Q236.6 -9.2 236.1 -8.7Q235.6 -8.2 235.2 -7.3Q235 -6.4 235 -5.4Q235 -2.5 237.5 -2.5Q238.5 -2.5 239.7 -3.2Q240.9 -3.9 242 -5.2Q242.3 -5.6 242.7 -5.6Q243 -5.6 243.2 -5.3Q243.4 -5 243.4 -4.5Q243.4 -3.5 242.9 -2.9Q241.8 -1.5 240.1 -0.7Q238.5 0.1 237 0.1Q234.5 0.1 233.1 -1.3Q231.8 -2.7 231.8 -4.9Z M254.8 -6.5Q254.8 -5.3 254.1 -5.1Q252.6 -4.6 250.8 -4.5Q250.3 -2.4 248.9 -1.1Q247.5 0.1 245.7 0.1Q244.2 0.1 243.2 -0.6Q242.1 -1.3 241.6 -2.5Q241 -3.7 241 -5.1Q241 -7 241.7 -8.5Q242.5 -10 243.7 -10.8Q245 -11.7 246.6 -11.7Q248.5 -11.7 249.6 -10.4Q250.8 -9.1 251 -7.1Q252.2 -7.2 253.8 -7.6Q254 -7.7 254.1 -7.7Q254.5 -7.7 254.6 -7.4Q254.8 -7 254.8 -6.5ZM248.1 -5.1Q247.3 -5.6 246.9 -6.4Q246.5 -7.3 246.5 -8.2Q246.5 -8.6 246.6 -9H246.5Q245.5 -9 244.8 -8.1Q244.1 -7.1 244.1 -5.4Q244.1 -4 244.7 -3.2Q245.2 -2.5 245.9 -2.5Q246.7 -2.5 247.3 -3.2Q247.9 -3.8 248.1 -5.1Z M267.6 -4.5Q267.6 -3.5 267.1 -2.9Q266.1 -1.7 264.8 -0.8Q263.6 0.1 262.4 0.1Q260.5 0.1 259.5 -2.1Q258.5 -0.8 257.7 -0.3Q256.9 0.1 255.8 0.1Q254.3 0.1 253.3 -1Q252.3 -2.1 252.3 -4Q252.3 -6 253.2 -7.7Q254 -9.4 255.5 -10.5Q257 -11.6 258.9 -11.8Q259.3 -16.6 260.7 -20.1Q262 -23.5 264.2 -23.5Q265.2 -23.5 266 -22.5Q266.7 -21.6 266.7 -19.6Q266.7 -16.8 265.3 -13Q263.9 -9.3 261.6 -5.3Q261.7 -3.9 262.1 -3.2Q262.4 -2.6 262.9 -2.6Q263.6 -2.6 264.3 -3.2Q265 -3.8 266.2 -5.2Q266.5 -5.6 266.9 -5.6Q267.2 -5.6 267.4 -5.3Q267.6 -5 267.6 -4.5ZM261.7 -9.2Q264.5 -15.4 264.5 -19.1Q264.5 -20 264.3 -20.5Q264.1 -21.1 263.9 -21.1Q263.4 -21.1 263 -19.4Q262.5 -17.7 262.1 -15Q261.8 -12.2 261.7 -9.2ZM258.9 -4.2Q258.6 -5.6 258.6 -7.2Q258.6 -7.9 258.7 -9.2Q257.3 -8.8 256.4 -7.4Q255.5 -6 255.5 -4.2Q255.5 -2.4 256.7 -2.4Q257.2 -2.4 257.6 -2.8Q258.1 -3.2 258.9 -4.2Z M277.4 -4.5Q277.4 -3.5 276.9 -2.9Q276 -1.8 274.3 -0.8Q272.6 0.1 270.7 0.1Q268.1 0.1 266.6 -1.3Q265.1 -2.7 265.1 -5.2Q265.1 -6.9 265.9 -8.4Q266.6 -9.9 267.9 -10.8Q269.2 -11.7 270.8 -11.7Q272.2 -11.7 273.1 -10.8Q274 -9.9 274 -8.5Q274 -6.7 272.8 -5.5Q271.5 -4.2 268.6 -3.5Q269.2 -2.4 270.9 -2.4Q272.1 -2.4 273.5 -3.2Q274.9 -4 276 -5.2Q276.3 -5.6 276.7 -5.6Q277 -5.6 277.2 -5.3Q277.4 -5 277.4 -4.5ZM268.2 -5.5V-5.5Q269.6 -5.8 270.5 -6.5Q271.3 -7.2 271.3 -8.2Q271.3 -8.6 271.1 -8.9Q270.8 -9.2 270.4 -9.2Q269.4 -9.2 268.8 -8.1Q268.2 -7.1 268.2 -5.5Z" fill="#E85A9B" /><path transform="translate(606.5,372)" d="M0.9 -4Q0.9 -6 1.8 -7.7Q2.7 -9.5 4.3 -10.6Q5.8 -11.7 7.5 -11.7Q8.1 -11.7 8.3 -11.5Q8.5 -11.3 8.6 -10.7Q9.1 -10.8 9.7 -10.8Q10.9 -10.8 10.9 -10Q10.9 -9.4 10.5 -7.5Q10 -4.6 10 -3.5Q10 -3.1 10.1 -2.9Q10.3 -2.6 10.6 -2.6Q11.1 -2.6 11.8 -3.2Q12.5 -3.9 13.6 -5.2Q13.9 -5.6 14.3 -5.6Q14.6 -5.6 14.8 -5.3Q15 -5 15 -4.5Q15 -3.5 14.5 -2.9Q13.5 -1.6 12.3 -0.8Q11.2 0.1 10.1 0.1Q9.3 0.1 8.6 -0.4Q7.9 -1 7.6 -2Q6.2 0.1 4.3 0.1Q2.7 0.1 1.8 -1Q0.9 -2.1 0.9 -4ZM7 -4.8 7.9 -9.4Q6.8 -9.3 5.9 -8.6Q5.1 -7.8 4.5 -6.6Q4 -5.3 4 -3.9Q4 -3.2 4.3 -2.8Q4.6 -2.4 5.2 -2.4Q5.7 -2.4 6.2 -3.1Q6.7 -3.7 7 -4.8Z M13 -4.1Q13 -7.3 13.9 -10.2Q14.2 -11 14.7 -11.3Q15.2 -11.7 16.1 -11.7Q16.6 -11.7 16.8 -11.5Q17 -11.4 17 -11.1Q17 -10.7 16.6 -9.2Q16.4 -8.2 16.2 -7.5Q16.1 -6.8 16 -5.7Q16.8 -7.8 17.8 -9.2Q18.9 -10.5 19.8 -11.1Q20.8 -11.7 21.6 -11.7Q23.3 -11.7 23.3 -10Q23.3 -9.1 22.7 -6.5Q22.2 -4.3 22.2 -3.6Q22.2 -2.6 23 -2.6Q23.5 -2.6 24.2 -3.2Q24.9 -3.9 26 -5.2Q26.3 -5.6 26.7 -5.6Q27 -5.6 27.2 -5.3Q27.4 -5 27.4 -4.5Q27.4 -3.5 26.9 -2.9Q25.8 -1.6 24.6 -0.7Q23.4 0.1 21.8 0.1Q20.5 0.1 19.9 -0.6Q19.2 -1.4 19.2 -2.8Q19.2 -3.5 19.6 -5.2Q19.9 -6.8 19.9 -7.4Q19.9 -7.8 19.6 -7.8Q19.3 -7.8 18.7 -7Q18.1 -6.2 17.5 -4.8Q16.9 -3.4 16.5 -1.9Q16.2 -0.7 15.9 -0.3Q15.5 0.1 14.7 0.1Q13.8 0.1 13.4 -0.9Q13 -1.9 13 -4.1Z M40.2 -4.5Q40.2 -3.5 39.8 -2.9Q38.8 -1.7 37.5 -0.8Q36.3 0.1 35.1 0.1Q33.2 0.1 32.2 -2.1Q31.2 -0.8 30.4 -0.3Q29.6 0.1 28.5 0.1Q27 0.1 26 -1Q25 -2.1 25 -4Q25 -6 25.9 -7.7Q26.7 -9.4 28.2 -10.5Q29.7 -11.6 31.6 -11.8Q32 -16.6 33.4 -20.1Q34.7 -23.5 36.9 -23.5Q38 -23.5 38.7 -22.5Q39.4 -21.6 39.4 -19.6Q39.4 -16.8 38 -13Q36.6 -9.3 34.3 -5.3Q34.4 -3.9 34.8 -3.2Q35.1 -2.6 35.6 -2.6Q36.3 -2.6 37 -3.2Q37.7 -3.8 38.9 -5.2Q39.2 -5.6 39.6 -5.6Q39.9 -5.6 40.1 -5.3Q40.2 -5 40.2 -4.5ZM34.4 -9.2Q37.2 -15.4 37.2 -19.1Q37.2 -20 37 -20.5Q36.8 -21.1 36.6 -21.1Q36.1 -21.1 35.7 -19.4Q35.2 -17.7 34.8 -15Q34.5 -12.2 34.4 -9.2ZM31.6 -4.2Q31.3 -5.6 31.3 -7.2Q31.3 -7.9 31.4 -9.2Q30 -8.8 29.1 -7.4Q28.2 -6 28.2 -4.2Q28.2 -2.4 29.4 -2.4Q29.9 -2.4 30.4 -2.8Q30.8 -3.2 31.6 -4.2Z  M46 -15.2Q46 -16 46.7 -16.6Q47.4 -17.2 48.4 -17.2Q49.4 -17.2 49.9 -16.8Q50.5 -16.3 50.5 -15.5Q50.5 -14.5 49.9 -13.9Q49.2 -13.3 48.1 -13.3Q47.1 -13.3 46.6 -13.8Q46 -14.3 46 -15.2ZM44.8 -4.1Q44.8 -5.2 45.1 -7Q45.4 -8.7 45.9 -10.2Q46.1 -11.1 46.5 -11.4Q46.8 -11.7 47.7 -11.7Q48.9 -11.7 48.9 -10.8Q48.9 -10.2 48.5 -7.9Q47.9 -5.2 47.9 -4.2Q47.9 -3.4 48.1 -3Q48.3 -2.6 48.7 -2.6Q49.2 -2.6 49.9 -3.2Q50.5 -3.9 51.7 -5.2Q52 -5.6 52.3 -5.6Q52.7 -5.6 52.8 -5.3Q53 -5 53 -4.5Q53 -3.5 52.6 -2.9Q50.1 0.1 47.9 0.1Q46.3 0.1 45.6 -1Q44.8 -2.2 44.8 -4.1Z M65.9 -4.5Q65.9 -3.5 65.4 -2.9Q64.4 -1.7 63.2 -0.8Q62 0.1 60.8 0.1Q58.9 0.1 57.9 -2.1Q56.8 -0.8 56 -0.3Q55.2 0.1 54.2 0.1Q52.7 0.1 51.7 -1Q50.7 -2.1 50.7 -4Q50.7 -6 51.5 -7.7Q52.4 -9.4 53.9 -10.5Q55.4 -11.6 57.2 -11.8Q57.7 -16.6 59 -20.1Q60.4 -23.5 62.5 -23.5Q63.6 -23.5 64.3 -22.5Q65 -21.6 65 -19.6Q65 -16.8 63.7 -13Q62.3 -9.3 60 -5.3Q60.1 -3.9 60.4 -3.2Q60.8 -2.6 61.3 -2.6Q62 -2.6 62.7 -3.2Q63.4 -3.8 64.5 -5.2Q64.8 -5.6 65.2 -5.6Q65.5 -5.6 65.7 -5.3Q65.9 -5 65.9 -4.5ZM60 -9.2Q62.8 -15.4 62.8 -19.1Q62.8 -20 62.6 -20.5Q62.5 -21.1 62.3 -21.1Q61.8 -21.1 61.3 -19.4Q60.8 -17.7 60.5 -15Q60.2 -12.2 60 -9.2ZM57.2 -4.2Q57 -5.6 57 -7.2Q57 -7.9 57 -9.2Q55.6 -8.8 54.7 -7.4Q53.8 -6 53.8 -4.2Q53.8 -2.4 55.1 -2.4Q55.5 -2.4 56 -2.8Q56.5 -3.2 57.2 -4.2Z M75.7 -4.5Q75.7 -3.5 75.2 -2.9Q74.3 -1.8 72.6 -0.8Q71 0.1 69 0.1Q66.4 0.1 65 -1.3Q63.5 -2.7 63.5 -5.2Q63.5 -6.9 64.2 -8.4Q65 -9.9 66.2 -10.8Q67.5 -11.7 69.2 -11.7Q70.6 -11.7 71.5 -10.8Q72.4 -9.9 72.4 -8.5Q72.4 -6.7 71.1 -5.5Q69.9 -4.2 66.9 -3.5Q67.6 -2.4 69.3 -2.4Q70.4 -2.4 71.9 -3.2Q73.3 -4 74.4 -5.2Q74.7 -5.6 75 -5.6Q75.4 -5.6 75.5 -5.3Q75.7 -5 75.7 -4.5ZM66.5 -5.5V-5.5Q68 -5.8 68.8 -6.5Q69.7 -7.2 69.7 -8.2Q69.7 -8.6 69.4 -8.9Q69.2 -9.2 68.7 -9.2Q67.8 -9.2 67.2 -8.1Q66.5 -7.1 66.5 -5.5Z M73.4 -4Q73.4 -6 74.3 -7.7Q75.2 -9.5 76.8 -10.6Q78.3 -11.7 80 -11.7Q80.6 -11.7 80.8 -11.5Q81 -11.3 81.1 -10.7Q81.6 -10.8 82.2 -10.8Q83.4 -10.8 83.4 -10Q83.4 -9.4 83 -7.5Q82.5 -4.6 82.5 -3.5Q82.5 -3.1 82.6 -2.9Q82.8 -2.6 83.1 -2.6Q83.6 -2.6 84.3 -3.2Q85 -3.9 86.1 -5.2Q86.4 -5.6 86.8 -5.6Q87.1 -5.6 87.3 -5.3Q87.5 -5 87.5 -4.5Q87.5 -3.5 87 -2.9Q86 -1.6 84.8 -0.8Q83.7 0.1 82.6 0.1Q81.8 0.1 81.1 -0.4Q80.4 -1 80 -2Q78.8 0.1 76.8 0.1Q75.2 0.1 74.3 -1Q73.4 -2.1 73.4 -4ZM79.5 -4.8 80.4 -9.4Q79.3 -9.3 78.4 -8.6Q77.5 -7.8 77 -6.6Q76.5 -5.3 76.5 -3.9Q76.5 -3.2 76.8 -2.8Q77.1 -2.4 77.7 -2.4Q78.2 -2.4 78.7 -3.1Q79.2 -3.7 79.5 -4.8Z M87.4 -1.3Q87.4 -1.9 87.9 -2.4Q88.4 -2.9 89.3 -2.9Q89.6 -2.9 90.1 -2.8Q90.5 -2.8 90.7 -2.7Q90.7 -3.4 90.4 -4Q90.2 -4.5 89.8 -5.1Q89.4 -5.6 89 -6Q88.2 -4.5 87.5 -3.6Q86.7 -2.6 85.8 -1.7Q85.4 -1.2 84.9 -1.2Q84.5 -1.2 84.2 -1.5Q84 -1.8 84 -2.2Q84 -2.8 84.3 -3.2L84.7 -3.6Q86 -5.3 86.7 -6.4Q87.2 -7.1 87.7 -8.3Q88.3 -9.5 88.8 -10.8Q89.3 -11.9 90.8 -11.9Q91.5 -11.9 91.8 -11.8Q92.1 -11.7 92.1 -11.4Q92.1 -11.2 92 -10.9Q91.9 -10.6 91.7 -10.3Q91.2 -9.4 91.2 -8.8Q91.2 -8.4 91.5 -7.9Q91.8 -7.5 92.3 -6.8Q93.1 -5.8 93.5 -5Q94 -4.3 94 -3.4Q94 -3.2 93.9 -2.7Q95.1 -3.2 96.8 -5.2Q97.1 -5.6 97.5 -5.6Q97.8 -5.6 98 -5.3Q98.2 -5 98.2 -4.5Q98.2 -3.5 97.7 -2.9Q96.4 -1.4 95.3 -0.8Q94.2 -0.2 92.5 -0.2Q91.5 0.7 90.1 0.7Q88.8 0.7 88.1 0.1Q87.4 -0.5 87.4 -1.3Z  M103.9 -15.2Q103.9 -16 104.6 -16.6Q105.3 -17.2 106.3 -17.2Q107.3 -17.2 107.8 -16.8Q108.4 -16.3 108.4 -15.5Q108.4 -14.5 107.8 -13.9Q107.1 -13.3 106 -13.3Q105 -13.3 104.5 -13.8Q103.9 -14.3 103.9 -15.2ZM102.7 -4.1Q102.7 -5.2 103 -7Q103.3 -8.7 103.8 -10.2Q104 -11.1 104.4 -11.4Q104.7 -11.7 105.6 -11.7Q106.8 -11.7 106.8 -10.8Q106.8 -10.2 106.4 -7.9Q105.8 -5.2 105.8 -4.2Q105.8 -3.4 106 -3Q106.2 -2.6 106.6 -2.6Q107.1 -2.6 107.8 -3.2Q108.4 -3.9 109.6 -5.2Q109.9 -5.6 110.2 -5.6Q110.6 -5.6 110.7 -5.3Q110.9 -5 110.9 -4.5Q110.9 -3.5 110.5 -2.9Q108 0.1 105.8 0.1Q104.2 0.1 103.5 -1Q102.7 -2.2 102.7 -4.1Z M109 -4.1Q109 -7.3 109.9 -10.2Q110.1 -11 110.6 -11.3Q111.1 -11.7 112 -11.7Q112.5 -11.7 112.8 -11.5Q113 -11.4 113 -11.1Q113 -10.7 112.6 -9.2Q112.3 -8.2 112.2 -7.5Q112 -6.8 111.9 -5.7Q112.8 -7.8 113.8 -9.2Q114.8 -10.5 115.8 -11.1Q116.8 -11.7 117.6 -11.7Q119.2 -11.7 119.2 -10Q119.2 -9.1 118.7 -6.5Q118.2 -4.3 118.2 -3.6Q118.2 -2.6 118.9 -2.6Q119.4 -2.6 120.1 -3.2Q120.8 -3.9 122 -5.2Q122.2 -5.6 122.6 -5.6Q123 -5.6 123.1 -5.3Q123.3 -5 123.3 -4.5Q123.3 -3.5 122.9 -2.9Q121.8 -1.6 120.5 -0.7Q119.3 0.1 117.7 0.1Q116.5 0.1 115.8 -0.6Q115.2 -1.4 115.2 -2.8Q115.2 -3.5 115.5 -5.2Q115.8 -6.8 115.8 -7.4Q115.8 -7.8 115.5 -7.8Q115.2 -7.8 114.6 -7Q114 -6.2 113.4 -4.8Q112.8 -3.4 112.5 -1.9Q112.2 -0.7 111.8 -0.3Q111.5 0.1 110.7 0.1Q109.7 0.1 109.3 -0.9Q109 -1.9 109 -4.1Z M133.2 -4.5Q133.2 -3.5 132.7 -2.9Q131.6 -1.6 130.3 -0.7Q129.1 0.1 127.4 0.1Q122.3 0.1 122.3 -7.1Q122.3 -8.2 122.4 -9.3H121.4Q120.7 -9.3 120.4 -9.6Q120.1 -9.8 120.1 -10.4Q120.1 -11.8 121.3 -11.8H122.7Q123.1 -14.6 124 -16.9Q124.9 -19.1 126.1 -20.5Q127.3 -21.8 128.8 -21.8Q129.8 -21.8 130.4 -20.9Q131 -20 131 -18.6Q131 -14.7 127.8 -11.8H130.6Q131 -11.8 131.1 -11.7Q131.3 -11.5 131.3 -11Q131.3 -9.3 128.5 -9.3H125.4Q125.4 -8 125.4 -7.3Q125.4 -4.7 126 -3.7Q126.6 -2.6 127.9 -2.6Q129 -2.6 129.8 -3.3Q130.7 -3.9 131.8 -5.2Q132.1 -5.6 132.5 -5.6Q132.8 -5.6 133 -5.3Q133.2 -5 133.2 -4.5ZM125.7 -12.2Q127.2 -13.5 127.9 -15.1Q128.6 -16.7 128.6 -17.9Q128.6 -19.4 128.1 -19.4Q127.7 -19.4 127.2 -18.5Q126.8 -17.6 126.4 -15.9Q126 -14.2 125.7 -12.2Z M144.6 -6.5Q144.6 -5.3 143.8 -5.1Q142.3 -4.6 140.5 -4.5Q140.1 -2.4 138.7 -1.1Q137.2 0.1 135.5 0.1Q134 0.1 132.9 -0.6Q131.9 -1.3 131.3 -2.5Q130.8 -3.7 130.8 -5.1Q130.8 -7 131.5 -8.5Q132.2 -10 133.5 -10.8Q134.8 -11.7 136.3 -11.7Q138.2 -11.7 139.4 -10.4Q140.5 -9.1 140.7 -7.1Q141.9 -7.2 143.5 -7.6Q143.7 -7.7 143.9 -7.7Q144.2 -7.7 144.4 -7.4Q144.6 -7 144.6 -6.5ZM137.9 -5.1Q137.1 -5.6 136.7 -6.4Q136.2 -7.3 136.2 -8.2Q136.2 -8.6 136.3 -9H136.2Q135.2 -9 134.5 -8.1Q133.9 -7.1 133.9 -5.4Q133.9 -4 134.4 -3.2Q135 -2.5 135.7 -2.5Q136.5 -2.5 137.1 -3.2Q137.7 -3.8 137.9 -5.1Z  M167.9 -7.6Q168.3 -7.6 168.5 -7.4Q168.7 -7.1 168.7 -6.7Q168.7 -5.9 168.4 -5.5Q168.1 -5.1 167.5 -4.9Q166.4 -4.5 165.1 -4.5Q164 -4.5 163 -4.8Q162.3 -3.6 161.4 -2.4Q160.4 -0.9 159.7 -0.4Q159 0.1 158.1 0.1Q157.1 0.1 156.5 -0.7Q156 -1.4 155.9 -3.2L155.8 -5Q155 -2.9 154.4 -1.8Q153.8 -0.7 153.2 -0.3Q152.6 0.1 151.7 0.1Q150.7 0.1 150.1 -0.7Q149.5 -1.5 149.4 -3.2Q149.1 -6.7 149.1 -9.3V-10.2Q149.1 -11 149.5 -11.4Q150 -11.7 150.8 -11.7Q151.5 -11.7 151.8 -11.4Q152.1 -11.1 152.1 -10.4Q152.1 -7.6 152.4 -3Q154.1 -6.5 155.6 -10.4Q155.8 -11.2 156.2 -11.4Q156.6 -11.7 157.2 -11.7Q157.8 -11.7 158.1 -11.4Q158.4 -11.1 158.4 -10.4Q158.4 -7.6 158.7 -3Q160.2 -5.2 161 -6.5Q160.6 -7.2 160.6 -8.2Q160.6 -9.1 161 -9.9Q161.3 -10.7 162 -11.2Q162.6 -11.7 163.5 -11.7Q164.2 -11.7 164.6 -11.2Q165.1 -10.7 165.1 -9.7Q165.1 -8.6 164.5 -7.1Q165.4 -7.2 167 -7.5L167.7 -7.6Q167.8 -7.6 167.9 -7.6Z M180 -6.5Q180 -5.3 179.2 -5.1Q177.7 -4.6 175.9 -4.5Q175.5 -2.4 174.1 -1.1Q172.7 0.1 170.9 0.1Q169.4 0.1 168.3 -0.6Q167.3 -1.3 166.7 -2.5Q166.2 -3.7 166.2 -5.1Q166.2 -7 166.9 -8.5Q167.6 -10 168.9 -10.8Q170.2 -11.7 171.7 -11.7Q173.6 -11.7 174.8 -10.4Q175.9 -9.1 176.1 -7.1Q177.3 -7.2 178.9 -7.6Q179.1 -7.7 179.3 -7.7Q179.6 -7.7 179.8 -7.4Q180 -7 180 -6.5ZM173.3 -5.1Q172.5 -5.6 172.1 -6.4Q171.7 -7.3 171.7 -8.2Q171.7 -8.6 171.7 -9H171.6Q170.6 -9 169.9 -8.1Q169.3 -7.1 169.3 -5.4Q169.3 -4 169.8 -3.2Q170.4 -2.5 171.1 -2.5Q171.9 -2.5 172.5 -3.2Q173.1 -3.8 173.3 -5.1Z M177.9 -4.1Q177.9 -7.3 178.8 -10.2Q179 -11 179.5 -11.3Q180 -11.7 181 -11.7Q181.5 -11.7 181.7 -11.5Q181.9 -11.4 181.9 -11.1Q181.9 -10.7 181.5 -9.2Q181.2 -8.2 181.1 -7.5Q180.9 -6.8 180.8 -5.7Q181.7 -7.8 182.7 -9.2Q183.7 -10.5 184.7 -11.1Q185.7 -11.7 186.5 -11.7Q188.1 -11.7 188.1 -10Q188.1 -9.7 187.9 -8.5Q187.7 -7.5 187.7 -7.2Q187.7 -6.3 188.3 -6.3Q189 -6.3 190.1 -7.4Q190.5 -7.8 190.8 -7.8Q191.1 -7.8 191.3 -7.5Q191.5 -7.2 191.5 -6.7Q191.5 -5.8 191 -5.2Q190.3 -4.5 189.4 -4Q188.4 -3.5 187.4 -3.5Q186.1 -3.5 185.4 -4.2Q184.7 -4.9 184.7 -6Q184.7 -6.4 184.8 -6.8Q184.8 -7.2 184.8 -7.4Q184.8 -7.8 184.5 -7.8Q184.2 -7.8 183.5 -7Q182.9 -6.2 182.3 -4.8Q181.7 -3.4 181.4 -1.9Q181.1 -0.7 180.7 -0.3Q180.4 0.1 179.6 0.1Q178.6 0.1 178.2 -0.9Q177.9 -1.9 177.9 -4.1Z M204.3 -4.5Q204.3 -3.5 203.9 -2.9Q202.7 -1.5 201.6 -0.7Q200.4 0.1 198.9 0.1Q196.9 0.1 195.8 -1Q194.6 -2.1 194.6 -3.9Q194.6 -4.9 195.6 -5.3Q196.7 -5.8 197.2 -6.3Q197.6 -6.9 197.6 -7.6Q197.6 -8.1 197.4 -8.3Q197.3 -8.5 197 -8.5Q196.3 -8.5 195.5 -7.6Q194.7 -6.6 194 -5Q193.3 -3.5 192.9 -1.9Q192.6 -0.7 192.2 -0.3Q191.9 0.1 191.1 0.1Q190.3 0.1 190 -0.4Q189.6 -1 189.5 -2.2Q189.4 -3.4 189.4 -5.6Q189.4 -9.5 190.1 -13.6Q190.9 -17.8 192.5 -20.7Q194 -23.5 196.2 -23.5Q197.3 -23.5 198 -22.5Q198.7 -21.5 198.7 -20Q198.7 -17.4 197.3 -14.7Q195.8 -12 192.5 -8.4Q192.4 -7.1 192.4 -5.7Q193.6 -8.8 195.1 -10.2Q196.7 -11.7 198 -11.7Q199.3 -11.7 200 -10.8Q200.8 -10 200.8 -8.7Q200.8 -7.3 200.1 -6.2Q199.4 -5 197.7 -4.1Q197.8 -3.5 198.3 -3Q198.8 -2.6 199.6 -2.6Q200.3 -2.6 201.1 -3.2Q201.8 -3.8 203 -5.2Q203.3 -5.6 203.6 -5.6Q204 -5.6 204.1 -5.3Q204.3 -5 204.3 -4.5ZM192.7 -11.5Q194.3 -13.3 195.3 -15.5Q196.3 -17.6 196.3 -19.4Q196.3 -20.2 196.1 -20.6Q196 -21 195.6 -21Q195.2 -21 194.6 -19.7Q194.1 -18.4 193.6 -16.3Q193.1 -14.1 192.7 -11.5Z M203.5 -15.2Q203.5 -16 204.2 -16.6Q204.9 -17.2 205.9 -17.2Q206.8 -17.2 207.4 -16.8Q208 -16.3 208 -15.5Q208 -14.5 207.3 -13.9Q206.7 -13.3 205.6 -13.3Q204.5 -13.3 204 -13.8Q203.5 -14.3 203.5 -15.2ZM202.3 -4.1Q202.3 -5.2 202.6 -7Q202.9 -8.7 203.3 -10.2Q203.5 -11.1 203.9 -11.4Q204.3 -11.7 205.1 -11.7Q206.4 -11.7 206.4 -10.8Q206.4 -10.2 205.9 -7.9Q205.3 -5.2 205.3 -4.2Q205.3 -3.4 205.5 -3Q205.7 -2.6 206.2 -2.6Q206.6 -2.6 207.3 -3.2Q208 -3.9 209.1 -5.2Q209.4 -5.6 209.8 -5.6Q210.1 -5.6 210.3 -5.3Q210.5 -5 210.5 -4.5Q210.5 -3.5 210 -2.9Q207.5 0.1 205.4 0.1Q203.8 0.1 203 -1Q202.3 -2.2 202.3 -4.1Z M208.5 -4.1Q208.5 -7.3 209.4 -10.2Q209.7 -11 210.2 -11.3Q210.7 -11.7 211.6 -11.7Q212.1 -11.7 212.3 -11.5Q212.5 -11.4 212.5 -11.1Q212.5 -10.7 212.1 -9.2Q211.9 -8.2 211.7 -7.5Q211.6 -6.8 211.5 -5.7Q212.3 -7.8 213.3 -9.2Q214.3 -10.5 215.3 -11.1Q216.3 -11.7 217.2 -11.7Q218.8 -11.7 218.8 -10Q218.8 -9.1 218.2 -6.5Q217.8 -4.3 217.8 -3.6Q217.8 -2.6 218.5 -2.6Q219 -2.6 219.7 -3.2Q220.3 -3.9 221.5 -5.2Q221.8 -5.6 222.2 -5.6Q222.5 -5.6 222.7 -5.3Q222.9 -5 222.9 -4.5Q222.9 -3.5 222.4 -2.9Q221.3 -1.6 220.1 -0.7Q218.8 0.1 217.3 0.1Q216 0.1 215.3 -0.6Q214.7 -1.4 214.7 -2.8Q214.7 -3.5 215.1 -5.2Q215.4 -6.8 215.4 -7.4Q215.4 -7.8 215.1 -7.8Q214.8 -7.8 214.2 -7Q213.6 -6.2 213 -4.8Q212.4 -3.4 212 -1.9Q211.7 -0.7 211.4 -0.3Q211 0.1 210.2 0.1Q209.3 0.1 208.9 -0.9Q208.5 -1.9 208.5 -4.1Z M234.3 -4.4Q234.3 -3.9 234.2 -3.5Q234 -3.2 233.6 -3Q231.5 -1.5 230.5 -0.8L228.9 0.3Q227.9 5.5 226.4 8.4Q224.8 11.4 222.5 11.4Q221.2 11.4 220.4 10.6Q219.6 9.8 219.6 8.5Q219.6 6.8 221 4.7Q222.4 2.7 226.2 -0.3L226.4 -1.3Q226 -0.6 225.3 -0.2Q224.6 0.1 223.9 0.1Q222.4 0.1 221.4 -1Q220.5 -2.1 220.5 -4Q220.5 -6 221.4 -7.7Q222.4 -9.5 223.9 -10.6Q225.5 -11.7 227.2 -11.7Q227.7 -11.7 227.9 -11.5Q228.1 -11.3 228.2 -10.7Q228.7 -10.8 229.3 -10.8Q230 -10.8 230.2 -10.6Q230.5 -10.5 230.5 -9.9Q230.5 -9.6 230.5 -9.4Q230.3 -8.7 229.8 -5.5Q229.7 -4.9 229.6 -4.2Q229.5 -3.5 229.4 -2.7Q231.3 -4.2 233.1 -5.3Q233.4 -5.5 233.7 -5.5Q234 -5.5 234.2 -5.2Q234.3 -4.9 234.3 -4.4ZM226.7 -5.1 227.5 -9.4Q226.5 -9.3 225.6 -8.6Q224.7 -7.8 224.2 -6.6Q223.7 -5.3 223.7 -3.9Q223.7 -3.2 224 -2.8Q224.3 -2.4 224.8 -2.4Q225.4 -2.4 225.9 -3.1Q226.5 -3.8 226.7 -5.1ZM225.7 2.7Q223.8 4.3 222.9 5.7Q222.1 7 222.1 8Q222.1 8.4 222.2 8.7Q222.4 9 222.8 9Q223.4 9 224.2 7.5Q225 6 225.7 2.7Z  M241.4 -1.3Q241.4 -1.9 241.9 -2.4Q242.4 -2.9 243.3 -2.9Q243.6 -2.9 244.1 -2.8Q244.5 -2.8 244.7 -2.7Q244.7 -3.4 244.4 -4Q244.2 -4.5 243.8 -5.1Q243.4 -5.6 243 -6Q242.2 -4.5 241.5 -3.6Q240.7 -2.6 239.8 -1.7Q239.4 -1.2 238.9 -1.2Q238.5 -1.2 238.2 -1.5Q238 -1.8 238 -2.2Q238 -2.8 238.3 -3.2L238.7 -3.6Q240 -5.3 240.7 -6.4Q241.2 -7.1 241.7 -8.3Q242.3 -9.5 242.8 -10.8Q243.3 -11.9 244.8 -11.9Q245.5 -11.9 245.8 -11.8Q246.1 -11.7 246.1 -11.4Q246.1 -11.2 246 -10.9Q245.9 -10.6 245.7 -10.3Q245.2 -9.4 245.2 -8.8Q245.2 -8.4 245.5 -7.9Q245.8 -7.5 246.3 -6.8Q247.1 -5.8 247.5 -5Q247.9 -4.3 247.9 -3.4Q247.9 -3.2 247.9 -2.7Q249.1 -3.2 250.8 -5.2Q251.1 -5.6 251.4 -5.6Q251.8 -5.6 252 -5.3Q252.2 -5 252.2 -4.5Q252.2 -3.5 251.7 -2.9Q250.4 -1.4 249.3 -0.8Q248.2 -0.2 246.5 -0.2Q245.5 0.7 244.1 0.7Q242.8 0.7 242.1 0.1Q241.4 -0.5 241.4 -1.3Z M263.6 -4.4Q263.6 -3.9 263.5 -3.5Q263.3 -3.2 262.9 -3L258.1 0.3Q257.2 5.5 255.6 8.4Q254.1 11.4 251.7 11.4Q250.4 11.4 249.6 10.6Q248.8 9.8 248.8 8.5Q248.8 7.4 249.4 6.1Q249.9 4.9 251.4 3.3Q252.8 1.7 255.5 -0.3L255.6 -0.9Q255.8 -1.8 256 -3.6Q255.5 -1.8 254.6 -0.8Q253.7 0.1 252.7 0.1Q251.6 0.1 250.8 -0.9Q250.1 -2 250.1 -3.5Q250.1 -5.4 250.4 -6.9Q250.6 -8.5 251.2 -10.2Q251.5 -11 251.9 -11.3Q252.4 -11.7 253.3 -11.7Q253.9 -11.7 254.1 -11.5Q254.3 -11.3 254.3 -11Q254.3 -10.8 254 -9.6Q253.8 -8.7 253.6 -7.9Q253.4 -6.9 253.3 -6Q253.1 -5 253.1 -4.4Q253.1 -3.5 253.7 -3.5Q254 -3.5 254.6 -4.2Q255.2 -5 255.8 -6.5Q256.4 -8 257 -10.2Q257.2 -11 257.6 -11.3Q258.1 -11.7 258.9 -11.7Q259.4 -11.7 259.7 -11.5Q259.9 -11.4 259.9 -11Q259.9 -10.4 259.2 -6.7L258.6 -2.7Q260.5 -4.1 262.4 -5.3Q262.7 -5.5 262.9 -5.5Q263.2 -5.5 263.4 -5.2Q263.6 -4.9 263.6 -4.4ZM254.9 2.7Q253 4.3 252.1 5.6Q251.3 7 251.3 8Q251.3 8.4 251.4 8.7Q251.6 9 252 9Q252.6 9 253.4 7.5Q254.2 6.1 254.9 2.7Z M264.1 -1.3Q264.1 -1.9 264.6 -2.4Q265 -2.9 266 -2.9Q266.3 -2.9 266.7 -2.8Q267.2 -2.8 267.4 -2.7Q267.4 -3.4 267.1 -4Q266.8 -4.5 266.4 -5.1Q266 -5.6 265.7 -6Q264.9 -4.5 264.1 -3.6Q263.4 -2.6 262.5 -1.7Q262 -1.2 261.5 -1.2Q261.1 -1.2 260.9 -1.5Q260.6 -1.8 260.6 -2.2Q260.6 -2.8 261 -3.2L261.3 -3.6Q262.7 -5.3 263.4 -6.4Q263.8 -7.1 264.4 -8.3Q265 -9.5 265.5 -10.8Q266 -11.9 267.5 -11.9Q268.2 -11.9 268.5 -11.8Q268.7 -11.7 268.7 -11.4Q268.7 -11.2 268.6 -10.9Q268.5 -10.6 268.4 -10.3Q267.9 -9.4 267.9 -8.8Q267.9 -8.4 268.2 -7.9Q268.4 -7.5 269 -6.8Q269.8 -5.8 270.2 -5Q270.6 -4.3 270.6 -3.4Q270.6 -3.2 270.6 -2.7Q271.8 -3.2 273.4 -5.2Q273.7 -5.6 274.1 -5.6Q274.4 -5.6 274.6 -5.3Q274.8 -5 274.8 -4.5Q274.8 -3.5 274.3 -2.9Q273.1 -1.4 271.9 -0.8Q270.8 -0.2 269.1 -0.2Q268.1 0.7 266.8 0.7Q265.5 0.7 264.8 0.1Q264.1 -0.5 264.1 -1.3Z M284.6 -4.5Q284.6 -3.5 284.1 -2.9Q283.1 -1.6 281.8 -0.7Q280.5 0.1 278.9 0.1Q273.8 0.1 273.8 -7.1Q273.8 -8.2 273.8 -9.3H272.9Q272.1 -9.3 271.9 -9.6Q271.6 -9.8 271.6 -10.4Q271.6 -11.8 272.7 -11.8H274.1Q274.6 -14.6 275.4 -16.9Q276.3 -19.1 277.6 -20.5Q278.8 -21.8 280.2 -21.8Q281.3 -21.8 281.9 -20.9Q282.5 -20 282.5 -18.6Q282.5 -14.7 279.2 -11.8H282Q282.4 -11.8 282.6 -11.7Q282.8 -11.5 282.8 -11Q282.8 -9.3 279.9 -9.3H276.9Q276.8 -8 276.8 -7.3Q276.8 -4.7 277.5 -3.7Q278.1 -2.6 279.4 -2.6Q280.5 -2.6 281.3 -3.3Q282.1 -3.9 283.2 -5.2Q283.6 -5.6 283.9 -5.6Q284.2 -5.6 284.4 -5.3Q284.6 -5 284.6 -4.5ZM277.1 -12.2Q278.6 -13.5 279.4 -15.1Q280.1 -16.7 280.1 -17.9Q280.1 -19.4 279.6 -19.4Q279.2 -19.4 278.7 -18.5Q278.2 -17.6 277.8 -15.9Q277.4 -14.2 277.1 -12.2Z M294.5 -4.5Q294.5 -3.5 294 -2.9Q293.1 -1.8 291.4 -0.8Q289.7 0.1 287.8 0.1Q285.1 0.1 283.7 -1.3Q282.2 -2.7 282.2 -5.2Q282.2 -6.9 283 -8.4Q283.7 -9.9 285 -10.8Q286.3 -11.7 287.9 -11.7Q289.3 -11.7 290.2 -10.8Q291.1 -9.9 291.1 -8.5Q291.1 -6.7 289.8 -5.5Q288.6 -4.2 285.7 -3.5Q286.3 -2.4 288 -2.4Q289.2 -2.4 290.6 -3.2Q292 -4 293.1 -5.2Q293.4 -5.6 293.8 -5.6Q294.1 -5.6 294.3 -5.3Q294.5 -5 294.5 -4.5ZM285.3 -5.5V-5.5Q286.7 -5.8 287.6 -6.5Q288.4 -7.2 288.4 -8.2Q288.4 -8.6 288.2 -8.9Q287.9 -9.2 287.5 -9.2Q286.5 -9.2 285.9 -8.1Q285.3 -7.1 285.3 -5.5Z M292.5 -4.1Q292.5 -7.3 293.4 -10.2Q293.6 -11 294.1 -11.3Q294.7 -11.7 295.6 -11.7Q296.1 -11.7 296.3 -11.5Q296.5 -11.4 296.5 -11.1Q296.5 -10.7 296.1 -9.2Q295.9 -8.2 295.7 -7.5Q295.6 -6.8 295.5 -5.7Q296.1 -7.6 297.1 -9Q298 -10.3 299 -11Q300 -11.7 300.9 -11.7Q301.7 -11.7 302.1 -11.2Q302.5 -10.9 302.5 -10Q302.5 -9.2 302 -7.1Q301.8 -6.2 301.7 -5.8Q303 -8.8 304.5 -10.2Q306 -11.7 307.3 -11.7Q309 -11.7 309 -10Q309 -9.1 308.4 -6.5Q307.9 -4.3 307.9 -3.6Q307.9 -2.6 308.7 -2.6Q309.2 -2.6 309.8 -3.2Q310.5 -3.9 311.7 -5.2Q312 -5.6 312.4 -5.6Q312.7 -5.6 312.9 -5.3Q313.1 -5 313.1 -4.5Q313.1 -3.5 312.6 -2.9Q311.5 -1.6 310.3 -0.7Q309 0.1 307.5 0.1Q306.2 0.1 305.5 -0.6Q304.9 -1.4 304.9 -2.8Q304.9 -3.5 305.2 -5.2Q305.6 -6.8 305.6 -7.4Q305.6 -7.8 305.3 -7.8Q305 -7.8 304.4 -7Q303.8 -6.2 303.1 -4.8Q302.6 -3.4 302.2 -1.9Q301.9 -0.7 301.5 -0.3Q301.2 0.1 300.4 0.1Q299.6 0.1 299.1 -0.7Q298.7 -1.5 298.7 -2.6Q298.7 -3.5 299 -5.3Q299.2 -6.9 299.2 -7.4Q299.2 -7.8 298.9 -7.8Q298.5 -7.8 298 -6.9Q297.4 -6 296.8 -4.6Q296.3 -3.2 296 -1.9Q295.7 -0.7 295.3 -0.3Q295 0.1 294.2 0.1Q293.2 0.1 292.9 -0.9Q292.5 -1.9 292.5 -4.1Z M313 -1.3Q313 -1.9 313.5 -2.4Q314 -2.9 314.9 -2.9Q315.2 -2.9 315.6 -2.8Q316.1 -2.8 316.3 -2.7Q316.3 -3.4 316 -4Q315.8 -4.5 315.4 -5.1Q315 -5.6 314.6 -6Q313.8 -4.5 313.1 -3.6Q312.3 -2.6 311.4 -1.7Q311 -1.2 310.5 -1.2Q310.1 -1.2 309.8 -1.5Q309.6 -1.8 309.6 -2.2Q309.6 -2.8 309.9 -3.2L310.2 -3.6Q311.6 -5.3 312.3 -6.4Q312.7 -7.1 313.3 -8.3Q313.9 -9.5 314.4 -10.8Q314.9 -11.9 316.4 -11.9Q317.1 -11.9 317.4 -11.8Q317.7 -11.7 317.7 -11.4Q317.7 -11.2 317.6 -10.9Q317.5 -10.6 317.3 -10.3Q316.8 -9.4 316.8 -8.8Q316.8 -8.4 317.1 -7.9Q317.4 -7.5 317.9 -6.8Q318.7 -5.8 319.1 -5Q319.5 -4.3 319.5 -3.4Q319.5 -3.2 319.5 -2.7Q320.7 -3.2 322.4 -5.2Q322.7 -5.6 323 -5.6Q323.4 -5.6 323.5 -5.3Q323.7 -5 323.7 -4.5Q323.7 -3.5 323.3 -2.9Q322 -1.4 320.9 -0.8Q319.7 -0.2 318.1 -0.2Q317.1 0.7 315.7 0.7Q314.4 0.7 313.7 0.1Q313 -0.5 313 -1.3Z M321.2 -2.1Q321.2 -3.2 321.8 -3.9Q322.5 -4.5 323.6 -4.5Q324.7 -4.5 325.3 -4Q325.9 -3.5 325.9 -2.4Q325.9 -1.2 325.2 -0.6Q324.6 0.1 323.4 0.1Q322.3 0.1 321.8 -0.5Q321.2 -1.1 321.2 -2.1Z" fill="#E85A9B" /><g transform="translate(620,316)"><path d="M0,-1 C.14,-.3 .3,-.14 1,0 C.3,.14 .14,.3 0,1 C-.14,.3 -.3,.14 -1,0 C-.3,-.14 -.14,-.3 0,-1Z" fill="#B98BE8" transform="scale(7)"><animate attributeName="opacity" values=".15;1;.15" dur="2.6s" begin="0.5s" repeatCount="indefinite"/><animateTransform attributeName="transform" type="scale" values="4.20;7.00;4.20" dur="2.6s" begin="0.5s" repeatCount="indefinite"/></path></g><g transform="translate(920,60)"><path d="M0,-1 C.14,-.3 .3,-.14 1,0 C.3,.14 .14,.3 0,1 C-.14,.3 -.3,.14 -1,0 C-.3,-.14 -.14,-.3 0,-1Z" fill="#F27FBC" transform="scale(8)"><animate attributeName="opacity" values=".15;1;.15" dur="2.6s" begin="1.2s" repeatCount="indefinite"/><animateTransform attributeName="transform" type="scale" values="4.80;8.00;4.80" dur="2.6s" begin="1.2s" repeatCount="indefinite"/></path></g></svg>