<svg xmlns="http://www.w3.org/2000/svg" width="1000" height="208" viewBox="0 0 1000 208"><defs><filter id="sh" x="-10%" y="-10%" width="120%" height="135%"><feDropShadow dx="0" dy="6" stdDeviation="7" flood-color="#E85A9B" flood-opacity=".17"/></filter>
<linearGradient id="card" x1="0" y1="0" x2="0" y2="1"><stop offset="0" stop-color="#FFFFFF"/><stop offset="1" stop-color="#FFF0F7"/></linearGradient>
<linearGradient id="shim" x1="0" x2="1"><stop offset="0" stop-color="#fff" stop-opacity="0"/><stop offset=".5" stop-color="#fff" stop-opacity=".85"/><stop offset="1" stop-color="#fff" stop-opacity="0"/></linearGradient>
<linearGradient id="pg" x1="0" x2="1"><stop offset="0" stop-color="#E85A9B"/><stop offset="1" stop-color="#B98BE8"/></linearGradient><clipPath id="t0"><rect x="14.0" y="14" width="228.0" height="170" rx="26"/></clipPath><linearGradient id="gt0" x1="0" y1="0" x2="0" y2="1"><stop offset="0" stop-color="#fff"/><stop offset="1" stop-color="#FFE3F1"/></linearGradient><clipPath id="t1"><rect x="262.0" y="14" width="228.0" height="170" rx="26"/></clipPath><linearGradient id="gt1" x1="0" y1="0" x2="0" y2="1"><stop offset="0" stop-color="#fff"/><stop offset="1" stop-color="#FFD6EA"/></linearGradient><clipPath id="t2"><rect x="510.0" y="14" width="228.0" height="170" rx="26"/></clipPath><linearGradient id="gt2" x1="0" y1="0" x2="0" y2="1"><stop offset="0" stop-color="#fff"/><stop offset="1" stop-color="#FFC9E2"/></linearGradient><clipPath id="t3"><rect x="758.0" y="14" width="228.0" height="170" rx="26"/></clipPath><linearGradient id="gt3" x1="0" y1="0" x2="0" y2="1"><stop offset="0" stop-color="#fff"/><stop offset="1" stop-color="#FCBBDB"/></linearGradient></defs><style>text{font-family:'Segoe UI',system-ui,-apple-system,Helvetica,Arial,sans-serif}</style><rect x="14.0" y="14" width="228.0" height="170" rx="26" fill="url(#gt0)" stroke="#FFC9E2" stroke-width="2.5" filter="url(#sh)"/><g clip-path="url(#t0)"><rect x="-90" y="-10" width="70" height="190" fill="url(#shim)" opacity=".7" transform="skewX(-18)"><animateTransform attributeName="transform" type="translate" additive="sum" values="0 0;0 0;1160 0" keyTimes="0;.55;1" dur="7s" begin="0.0s" repeatCount="indefinite"/></rect></g><g transform="translate(128.0,70)"><g><animateTransform attributeName="transform" type="translate" values="0 0;0 -3;0 0" dur="3.2s" begin="0.0s" repeatCount="indefinite"/><circle r="34" fill="#fff" stroke="#E85A9B" stroke-width="2.5"/><circle r="27" fill="#FFE3F1"/><path d="M14.25.18l.9.2.73.26.59.3.45.32.34.34.25.34.16.33.1.3.04.26.02.2-.01.13V8.5l-.05.63-.13.55-.21.46-.26.38-.3.31-.33.25-.35.19-.35.14-.33.1-.3.07-.26.04-.21.02H8.77l-.69.05-.59.14-.5.22-.41.27-.33.32-.27.35-.2.36-.15.37-.1.35-.07.32-.04.27-.02.21v3.06H3.17l-.21-.03-.28-.07-.32-.12-.35-.18-.36-.26-.36-.36-.35-.46-.32-.59-.28-.73-.21-.88-.14-1.05-.05-1.23.06-1.22.16-1.04.24-.87.32-.71.36-.57.4-.44.42-.33.42-.24.4-.16.36-.1.32-.05.24-.01h.16l.06.01h8.16v-.83H6.18l-.01-2.75-.02-.37.05-.34.11-.31.17-.28.25-.26.31-.23.38-.2.44-.18.51-.15.58-.12.64-.1.71-.06.77-.04.84-.02 1.27.05zm-6.3 1.98l-.23.33-.08.41.08.41.23.34.33.22.41.09.41-.09.33-.22.23-.34.08-.41-.08-.41-.23-.33-.33-.22-.41-.09-.41.09zm13.09 3.95l.28.06.32.12.35.18.36.27.36.35.35.47.32.59.28.73.21.88.14 1.04.05 1.23-.06 1.23-.16 1.04-.24.86-.32.71-.36.57-.4.45-.42.33-.42.24-.4.16-.36.09-.32.05-.24.02-.16-.01h-8.22v.82h5.84l.01 2.76.02.36-.05.34-.11.31-.17.29-.25.25-.31.24-.38.2-.44.17-.51.15-.58.13-.64.09-.71.07-.77.04-.84.01-1.27-.04-1.07-.14-.9-.2-.73-.25-.59-.3-.45-.33-.34-.34-.25-.34-.16-.33-.1-.3-.04-.25-.02-.2.01-.13v-5.34l.05-.64.13-.54.21-.46.26-.38.3-.32.33-.24.35-.2.35-.14.33-.1.3-.06.26-.04.21-.02.13-.01h5.84l.69-.05.59-.14.5-.21.41-.28.33-.32.27-.35.2-.36.15-.36.1-.35.07-.32.04-.28.02-.21V6.07h2.09l.14.01zm-6.47 14.25l-.23.33-.08.41.08.41.23.33.33.23.41.08.41-.08.33-.23.23-.33.08-.41-.08-.41-.23-.33-.33-.23-.41-.08-.41.08z" fill="#E85A9B" transform="translate(-17,-17) scale(1.417)"/></g></g><text x="128.0" y="132" text-anchor="middle" font-size="17" font-weight="800" letter-spacing="1" fill="#704C5C">Python</text><text x="128.0" y="154" text-anchor="middle" font-size="13.5" font-weight="500" fill="#9A8290">Coursera</text><rect x="262.0" y="14" width="228.0" height="170" rx="26" fill="url(#gt1)" stroke="#FCBBDB" stroke-width="2.5" filter="url(#sh)"/><g clip-path="url(#t1)"><rect x="-90" y="-10" width="70" height="190" fill="url(#shim)" opacity=".7" transform="skewX(-18)"><animateTransform attributeName="transform" type="translate" additive="sum" values="0 0;0 0;1160 0" keyTimes="0;.55;1" dur="7s" begin="0.7s" repeatCount="indefinite"/></rect></g><g transform="translate(376.0,70)"><g><animateTransform attributeName="transform" type="translate" values="0 0;0 -3;0 0" dur="3.2s" begin="0.45s" repeatCount="indefinite"/><circle r="34" fill="#fff" stroke="#D63F85" stroke-width="2.5"/><circle r="27" fill="#FFD6EA"/><g fill="none" stroke="#D63F85" stroke-width="1.9" stroke-linecap="round" stroke-linejoin="round" transform="translate(-17,-17) scale(1.417)"><path d="M3 3v16a2 2 0 0 0 2 2h16" />
  <path d="M18 17V9" />
  <path d="M13 17V5" />
  <path d="M8 17v-3" /></g></g></g><text x="376.0" y="132" text-anchor="middle" font-size="17" font-weight="800" letter-spacing="1" fill="#704C5C">Data Science</text><text x="376.0" y="154" text-anchor="middle" font-size="13.5" font-weight="500" fill="#9A8290">Udemy</text><rect x="510.0" y="14" width="228.0" height="170" rx="26" fill="url(#gt2)" stroke="#FAAAD2" stroke-width="2.5" filter="url(#sh)"/><g clip-path="url(#t2)"><rect x="-90" y="-10" width="70" height="190" fill="url(#shim)" opacity=".7" transform="skewX(-18)"><animateTransform attributeName="transform" type="translate" additive="sum" values="0 0;0 0;1160 0" keyTimes="0;.55;1" dur="7s" begin="1.4s" repeatCount="indefinite"/></rect></g><g transform="translate(624.0,70)"><g><animateTransform attributeName="transform" type="translate" values="0 0;0 -3;0 0" dur="3.2s" begin="0.9s" repeatCount="indefinite"/><circle r="34" fill="#fff" stroke="#F27FBC" stroke-width="2.5"/><circle r="27" fill="#FFC9E2"/><g fill="none" stroke="#F27FBC" stroke-width="1.9" stroke-linecap="round" stroke-linejoin="round" transform="translate(-17,-17) scale(1.417)"><path d="M20 13c0 5-3.5 7.5-7.66 8.95a1 1 0 0 1-.67-.01C7.5 20.5 4 18 4 13V6a1 1 0 0 1 1-1c2 0 4.5-1.2 6.24-2.72a1.17 1.17 0 0 1 1.52 0C14.51 3.81 17 5 19 5a1 1 0 0 1 1 1z" />
  <path d="m9 12 2 2 4-4" /></g></g></g><text x="624.0" y="132" text-anchor="middle" font-size="17" font-weight="800" letter-spacing="1" fill="#704C5C">CompTIA CySA+</text><text x="624.0" y="154" text-anchor="middle" font-size="13.5" font-weight="500" fill="#9A8290">Udemy</text><rect x="758.0" y="14" width="228.0" height="170" rx="26" fill="url(#gt3)" stroke="#FFF0F7" stroke-width="2.5" filter="url(#sh)"/><g clip-path="url(#t3)"><rect x="-90" y="-10" width="70" height="190" fill="url(#shim)" opacity=".7" transform="skewX(-18)"><animateTransform attributeName="transform" type="translate" additive="sum" values="0 0;0 0;1160 0" keyTimes="0;.55;1" dur="7s" begin="2.0999999999999996s" repeatCount="indefinite"/></rect></g><g transform="translate(872.0,70)"><g><animateTransform attributeName="transform" type="translate" values="0 0;0 -3;0 0" dur="3.2s" begin="1.35s" repeatCount="indefinite"/><circle r="34" fill="#fff" stroke="#B98BE8" stroke-width="2.5"/><circle r="27" fill="#FCBBDB"/><g fill="none" stroke="#B98BE8" stroke-width="1.9" stroke-linecap="round" stroke-linejoin="round" transform="translate(-17,-17) scale(1.417)"><path d="M11.017 2.814a1 1 0 0 1 1.966 0l1.051 5.558a2 2 0 0 0 1.594 1.594l5.558 1.051a1 1 0 0 1 0 1.966l-5.558 1.051a2 2 0 0 0-1.594 1.594l-1.051 5.558a1 1 0 0 1-1.966 0l-1.051-5.558a2 2 0 0 0-1.594-1.594l-5.558-1.051a1 1 0 0 1 0-1.966l5.558-1.051a2 2 0 0 0 1.594-1.594z" />
  <path d="M20 2v4" />
  <path d="M22 4h-4" />
  <circle cx="4" cy="20" r="2" /></g></g></g><text x="872.0" y="132" text-anchor="middle" font-size="17" font-weight="800" letter-spacing="1" fill="#704C5C">Generative AI</text><text x="872.0" y="154" text-anchor="middle" font-size="13.5" font-weight="500" fill="#9A8290">RAG · Prompt Engineering</text></svg>