<svg xmlns="http://www.w3.org/2000/svg" width="1000" height="268" viewBox="0 0 1000 268"><defs><filter id="sh" x="-10%" y="-10%" width="120%" height="135%"><feDropShadow dx="0" dy="6" stdDeviation="7" flood-color="#E85A9B" flood-opacity=".17"/></filter>
<linearGradient id="card" x1="0" y1="0" x2="0" y2="1"><stop offset="0" stop-color="#FFFFFF"/><stop offset="1" stop-color="#FFF0F7"/></linearGradient>
<linearGradient id="shim" x1="0" x2="1"><stop offset="0" stop-color="#fff" stop-opacity="0"/><stop offset=".5" stop-color="#fff" stop-opacity=".85"/><stop offset="1" stop-color="#fff" stop-opacity="0"/></linearGradient>
<linearGradient id="pg" x1="0" x2="1"><stop offset="0" stop-color="#E85A9B"/><stop offset="1" stop-color="#B98BE8"/></linearGradient></defs><style>text{font-family:'Segoe UI',system-ui,-apple-system,Helvetica,Arial,sans-serif}</style><g transform="translate(25.0,20)"><g><animateTransform attributeName="transform" type="translate" values="0 0;0 -4;0 0" dur="3.6s" begin="0.0s" repeatCount="indefinite"/><rect width="224" height="56" rx="28" fill="#FFE3F1" stroke="#E85A9B" stroke-width="2"/><circle cx="30" cy="28.0" r="19" fill="#fff"/><path d="M14.25.18l.9.2.73.26.59.3.45.32.34.34.25.34.16.33.1.3.04.26.02.2-.01.13V8.5l-.05.63-.13.55-.21.46-.26.38-.3.31-.33.25-.35.19-.35.14-.33.1-.3.07-.26.04-.21.02H8.77l-.69.05-.59.14-.5.22-.41.27-.33.32-.27.35-.2.36-.15.37-.1.35-.07.32-.04.27-.02.21v3.06H3.17l-.21-.03-.28-.07-.32-.12-.35-.18-.36-.26-.36-.36-.35-.46-.32-.59-.28-.73-.21-.88-.14-1.05-.05-1.23.06-1.22.16-1.04.24-.87.32-.71.36-.57.4-.44.42-.33.42-.24.4-.16.36-.1.32-.05.24-.01h.16l.06.01h8.16v-.83H6.18l-.01-2.75-.02-.37.05-.34.11-.31.17-.28.25-.26.31-.23.38-.2.44-.18.51-.15.58-.12.64-.1.71-.06.77-.04.84-.02 1.27.05zm-6.3 1.98l-.23.33-.08.41.08.41.23.34.33.22.41.09.41-.09.33-.22.23-.34.08-.41-.08-.41-.23-.33-.33-.22-.41-.09-.41.09zm13.09 3.95l.28.06.32.12.35.18.36.27.36.35.35.47.32.59.28.73.21.88.14 1.04.05 1.23-.06 1.23-.16 1.04-.24.86-.32.71-.36.57-.4.45-.42.33-.42.24-.4.16-.36.09-.32.05-.24.02-.16-.01h-8.22v.82h5.84l.01 2.76.02.36-.05.34-.11.31-.17.29-.25.25-.31.24-.38.2-.44.17-.51.15-.58.13-.64.09-.71.07-.77.04-.84.01-1.27-.04-1.07-.14-.9-.2-.73-.25-.59-.3-.45-.33-.34-.34-.25-.34-.16-.33-.1-.3-.04-.25-.02-.2.01-.13v-5.34l.05-.64.13-.54.21-.46.26-.38.3-.32.33-.24.35-.2.35-.14.33-.1.3-.06.26-.04.21-.02.13-.01h5.84l.69-.05.59-.14.5-.21.41-.28.33-.32.27-.35.2-.36.15-.36.1-.35.07-.32.04-.28.02-.21V6.07h2.09l.14.01zm-6.47 14.25l-.23.33-.08.41.08.41.23.33.33.23.41.08.41-.08.33-.23.23-.33.08-.41-.08-.41-.23-.33-.33-.23-.41-.08-.41.08z" fill="#E85A9B" transform="translate(18,16.0) scale(1.000)"/><text x="58" y="33.5" font-size="15.5" font-weight="700" fill="#704C5C">Python</text></g></g><g transform="translate(267.0,20)"><g><animateTransform attributeName="transform" type="translate" values="0 0;0 -4;0 0" dur="3.6s" begin="0.35s" repeatCount="indefinite"/><rect width="224" height="56" rx="28" fill="#FFC9E2" stroke="#D63F85" stroke-width="2"/><circle cx="30" cy="28.0" r="19" fill="#fff"/><g fill="none" stroke="#D63F85" stroke-width="2" stroke-linecap="round" stroke-linejoin="round" transform="translate(18,16.0) scale(1.000)"><path d="M3 3v16a2 2 0 0 0 2 2h16" />
  <path d="M18 17V9" />
  <path d="M13 17V5" />
  <path d="M8 17v-3" /></g><text x="58" y="33.5" font-size="15.5" font-weight="700" fill="#704C5C">Data Science</text></g></g><g transform="translate(509.0,20)"><g><animateTransform attributeName="transform" type="translate" values="0 0;0 -4;0 0" dur="3.6s" begin="0.7s" repeatCount="indefinite"/><rect width="224" height="56" rx="28" fill="#FAAAD2" stroke="#F27FBC" stroke-width="2"/><circle cx="30" cy="28.0" r="19" fill="#fff"/><g fill="none" stroke="#F27FBC" stroke-width="2" stroke-linecap="round" stroke-linejoin="round" transform="translate(18,16.0) scale(1.000)"><path d="M20 13c0 5-3.5 7.5-7.66 8.95a1 1 0 0 1-.67-.01C7.5 20.5 4 18 4 13V6a1 1 0 0 1 1-1c2 0 4.5-1.2 6.24-2.72a1.17 1.17 0 0 1 1.52 0C14.51 3.81 17 5 19 5a1 1 0 0 1 1 1z" />
  <path d="m9 12 2 2 4-4" /></g><text x="58" y="33.5" font-size="15.5" font-weight="700" fill="#704C5C">Cybersecurity</text></g></g><g transform="translate(751.0,20)"><g><animateTransform attributeName="transform" type="translate" values="0 0;0 -4;0 0" dur="3.6s" begin="1.0499999999999998s" repeatCount="indefinite"/><rect width="224" height="56" rx="28" fill="#FFD6EA" stroke="#B98BE8" stroke-width="2"/><circle cx="30" cy="28.0" r="19" fill="#fff"/><g fill="none" stroke="#B98BE8" stroke-width="2" stroke-linecap="round" stroke-linejoin="round" transform="translate(18,16.0) scale(1.000)"><path d="M11.017 2.814a1 1 0 0 1 1.966 0l1.051 5.558a2 2 0 0 0 1.594 1.594l5.558 1.051a1 1 0 0 1 0 1.966l-5.558 1.051a2 2 0 0 0-1.594 1.594l-1.051 5.558a1 1 0 0 1-1.966 0l-1.051-5.558a2 2 0 0 0-1.594-1.594l-5.558-1.051a1 1 0 0 1 0-1.966l5.558-1.051a2 2 0 0 0 1.594-1.594z" />
  <path d="M20 2v4" />
  <path d="M22 4h-4" />
  <circle cx="4" cy="20" r="2" /></g><text x="58" y="33.5" font-size="15.5" font-weight="700" fill="#704C5C">Generative AI</text></g></g><g transform="translate(25.0,96)"><g><animateTransform attributeName="transform" type="translate" values="0 0;0 -4;0 0" dur="3.6s" begin="1.4s" repeatCount="indefinite"/><rect width="224" height="56" rx="28" fill="#FCBBDB" stroke="#C94C93" stroke-width="2"/><circle cx="30" cy="28.0" r="19" fill="#fff"/><g fill="none" stroke="#C94C93" stroke-width="2" stroke-linecap="round" stroke-linejoin="round" transform="translate(18,16.0) scale(1.000)"><path d="M14.7 6.3a1 1 0 0 0 0 1.4l1.6 1.6a1 1 0 0 0 1.4 0l3.106-3.105c.32-.322.863-.22.983.218a6 6 0 0 1-8.259 7.057l-7.91 7.91a1 1 0 0 1-2.999-3l7.91-7.91a6 6 0 0 1 7.057-8.259c.438.12.54.662.219.984z" /></g><text x="58" y="33.5" font-size="15.5" font-weight="700" fill="#704C5C">Security Engineering</text></g></g><g transform="translate(267.0,96)"><g><animateTransform attributeName="transform" type="translate" values="0 0;0 -4;0 0" dur="3.6s" begin="1.75s" repeatCount="indefinite"/><rect width="224" height="56" rx="28" fill="#FFE3F1" stroke="#F06BAE" stroke-width="2"/><circle cx="30" cy="28.0" r="19" fill="#fff"/><g fill="none" stroke="#F06BAE" stroke-width="2" stroke-linecap="round" stroke-linejoin="round" transform="translate(18,16.0) scale(1.000)"><path d="M19.07 4.93A10 10 0 0 0 6.99 3.34" />
  <path d="M4 6h.01" />
  <path d="M2.29 9.62A10 10 0 1 0 21.31 8.35" />
  <path d="M16.24 7.76A6 6 0 1 0 8.23 16.67" />
  <path d="M12 18h.01" />
  <path d="M17.99 11.66A6 6 0 0 1 15.77 16.67" />
  <circle cx="12" cy="12" r="2" />
  <path d="m13.41 10.59 5.66-5.66" /></g><text x="58" y="33.5" font-size="15.5" font-weight="700" fill="#704C5C">SOC &amp; Threat Detection</text></g></g><g transform="translate(509.0,96)"><g><animateTransform attributeName="transform" type="translate" values="0 0;0 -4;0 0" dur="3.6s" begin="2.0999999999999996s" repeatCount="indefinite"/><rect width="224" height="56" rx="28" fill="#FFC9E2" stroke="#E85A9B" stroke-width="2"/><circle cx="30" cy="28.0" r="19" fill="#fff"/><g fill="none" stroke="#E85A9B" stroke-width="2" stroke-linecap="round" stroke-linejoin="round" transform="translate(18,16.0) scale(1.000)"><path d="M12 20v-9" />
  <path d="M14 7a4 4 0 0 1 4 4v3a6 6 0 0 1-12 0v-3a4 4 0 0 1 4-4z" />
  <path d="M14.12 3.88 16 2" />
  <path d="M21 21a4 4 0 0 0-3.81-4" />
  <path d="M21 5a4 4 0 0 1-3.55 3.97" />
  <path d="M22 13h-4" />
  <path d="M3 21a4 4 0 0 1 3.81-4" />
  <path d="M3 5a4 4 0 0 0 3.55 3.97" />
  <path d="M6 13H2" />
  <path d="m8 2 1.88 1.88" />
  <path d="M9 7.13V6a3 3 0 1 1 6 0v1.13" /></g><text x="58" y="33.5" font-size="15.5" font-weight="700" fill="#704C5C">Vulnerability Research</text></g></g><g transform="translate(751.0,96)"><g><animateTransform attributeName="transform" type="translate" values="0 0;0 -4;0 0" dur="3.6s" begin="2.4499999999999997s" repeatCount="indefinite"/><rect width="224" height="56" rx="28" fill="#FAAAD2" stroke="#D63F85" stroke-width="2"/><circle cx="30" cy="28.0" r="19" fill="#fff"/><g fill="none" stroke="#D63F85" stroke-width="2" stroke-linecap="round" stroke-linejoin="round" transform="translate(18,16.0) scale(1.000)"><path d="M6 18h8" />
  <path d="M3 22h18" />
  <path d="M14 22a7 7 0 1 0 0-14h-1" />
  <path d="M9 14h2" />
  <path d="M9 12a2 2 0 0 1-2-2V6h6v4a2 2 0 0 1-2 2Z" />
  <path d="M12 6V3a1 1 0 0 0-1-1H9a1 1 0 0 0-1 1v3" /></g><text x="58" y="33.5" font-size="15.5" font-weight="700" fill="#704C5C">Digital Forensics</text></g></g><g transform="translate(25.0,172)"><g><animateTransform attributeName="transform" type="translate" values="0 0;0 -4;0 0" dur="3.6s" begin="2.8s" repeatCount="indefinite"/><rect width="224" height="56" rx="28" fill="#FFD6EA" stroke="#F27FBC" stroke-width="2"/><circle cx="30" cy="28.0" r="19" fill="#fff"/><g fill="none" stroke="#F27FBC" stroke-width="2" stroke-linecap="round" stroke-linejoin="round" transform="translate(18,16.0) scale(1.000)"><path d="M12 18V5" />
  <path d="M15 13a4.17 4.17 0 0 1-3-4 4.17 4.17 0 0 1-3 4" />
  <path d="M17.598 6.5A3 3 0 1 0 12 5a3 3 0 1 0-5.598 1.5" />
  <path d="M17.997 5.125a4 4 0 0 1 2.526 5.77" />
  <path d="M18 18a4 4 0 0 0 2-7.464" />
  <path d="M19.967 17.483A4 4 0 1 1 12 18a4 4 0 1 1-7.967-.517" />
  <path d="M6 18a4 4 0 0 1-2-7.464" />
  <path d="M6.003 5.125a4 4 0 0 0-2.526 5.77" /></g><text x="58" y="33.5" font-size="15.5" font-weight="700" fill="#704C5C">AI Security</text></g></g><g transform="translate(267.0,172)"><g><animateTransform attributeName="transform" type="translate" values="0 0;0 -4;0 0" dur="3.6s" begin="3.15s" repeatCount="indefinite"/><rect width="224" height="56" rx="28" fill="#FCBBDB" stroke="#B98BE8" stroke-width="2"/><circle cx="30" cy="28.0" r="19" fill="#fff"/><g fill="none" stroke="#B98BE8" stroke-width="2" stroke-linecap="round" stroke-linejoin="round" transform="translate(18,16.0) scale(1.000)"><path d="M12 20v2" />
  <path d="M12 2v2" />
  <path d="M17 20v2" />
  <path d="M17 2v2" />
  <path d="M2 12h2" />
  <path d="M2 17h2" />
  <path d="M2 7h2" />
  <path d="M20 12h2" />
  <path d="M20 17h2" />
  <path d="M20 7h2" />
  <path d="M7 20v2" />
  <path d="M7 2v2" />
  <rect x="4" y="4" width="16" height="16" rx="2" />
  <rect x="8" y="8" width="8" height="8" rx="1" /></g><text x="58" y="33.5" font-size="15.5" font-weight="700" fill="#704C5C">Machine Learning</text></g></g><g transform="translate(509.0,172)"><g><animateTransform attributeName="transform" type="translate" values="0 0;0 -4;0 0" dur="3.6s" begin="3.5s" repeatCount="indefinite"/><rect width="224" height="56" rx="28" fill="#FFE3F1" stroke="#C94C93" stroke-width="2"/><circle cx="30" cy="28.0" r="19" fill="#fff"/><g fill="none" stroke="#C94C93" stroke-width="2" stroke-linecap="round" stroke-linejoin="round" transform="translate(18,16.0) scale(1.000)"><circle cx="12" cy="12" r="10" />
  <path d="M12 2a14.5 14.5 0 0 0 0 20 14.5 14.5 0 0 0 0-20" />
  <path d="M2 12h20" /></g><text x="58" y="33.5" font-size="15.5" font-weight="700" fill="#704C5C">Web Security</text></g></g><g transform="translate(751.0,172)"><g><animateTransform attributeName="transform" type="translate" values="0 0;0 -4;0 0" dur="3.6s" begin="3.8499999999999996s" repeatCount="indefinite"/><rect width="224" height="56" rx="28" fill="#FFC9E2" stroke="#F06BAE" stroke-width="2"/><circle cx="30" cy="28.0" r="19" fill="#fff"/><g fill="none" stroke="#F06BAE" stroke-width="2" stroke-linecap="round" stroke-linejoin="round" transform="translate(18,16.0) scale(1.000)"><rect width="18" height="11" x="3" y="11" rx="2" ry="2" />
  <path d="M7 11V7a5 5 0 0 1 10 0v4" /></g><text x="58" y="33.5" font-size="15.5" font-weight="700" fill="#704C5C">Secure Software</text></g></g></svg>