<svg xmlns="http://www.w3.org/2000/svg" width="1000" height="96" viewBox="0 0 1000 96"><defs><filter id="sh" x="-10%" y="-10%" width="120%" height="135%"><feDropShadow dx="0" dy="6" stdDeviation="7" flood-color="#E85A9B" flood-opacity=".17"/></filter>
<linearGradient id="card" x1="0" y1="0" x2="0" y2="1"><stop offset="0" stop-color="#FFFFFF"/><stop offset="1" stop-color="#FFF0F7"/></linearGradient>
<linearGradient id="shim" x1="0" x2="1"><stop offset="0" stop-color="#fff" stop-opacity="0"/><stop offset=".5" stop-color="#fff" stop-opacity=".85"/><stop offset="1" stop-color="#fff" stop-opacity="0"/></linearGradient>
<linearGradient id="pg" x1="0" x2="1"><stop offset="0" stop-color="#E85A9B"/><stop offset="1" stop-color="#B98BE8"/></linearGradient><linearGradient id="lg1" x1="0" x2="1"><stop offset="0" stop-color="#D8B4F8" stop-opacity="0"/><stop offset="1" stop-color="#A874E0"/></linearGradient><linearGradient id="lg2" x1="0" x2="1"><stop offset="0" stop-color="#A874E0"/><stop offset="1" stop-color="#D8B4F8" stop-opacity="0"/></linearGradient></defs><style>text{font-family:'Segoe UI',system-ui,-apple-system,Helvetica,Arial,sans-serif}.dash{stroke-dasharray:7 9;animation:dm 1.6s linear infinite}@keyframes dm{to{stroke-dashoffset:-32}}</style><line class="dash" x1="40" y1="46" x2="187" y2="46" stroke="url(#lg1)" stroke-width="3" stroke-linecap="round"/><line class="dash" x1="813" y1="46" x2="960" y2="46" stroke="url(#lg2)" stroke-width="3" stroke-linecap="round"/><path transform="translate(238.7,62)" d="M36.9 -8.2Q36.9 -6.4 36 -5.3Q33.4 -2.3 31 -1Q28.6 0.2 25.2 0.2Q22.8 0.2 20.8 -0.4Q18.8 -1 15.9 -2.2Q13.2 -3.3 10.8 -4Q8.5 0.2 3.8 0.2Q1.2 0.2 -0.3 -0.9Q-1.9 -2.1 -1.9 -4Q-1.9 -6.2 0.3 -7.7Q2.4 -9.2 6 -9.2H6.6L7.5 -22.6Q7.7 -27.2 9.1 -30.2Q10.5 -33.2 12.9 -35.3Q15 -37.1 17.8 -38.1Q20.5 -39 23.5 -39Q28.5 -39 31.1 -36.4Q33.8 -33.9 33.8 -29.7Q33.8 -26.9 32.8 -25.2Q31.8 -23.5 30 -23.5Q28.7 -23.5 28 -24.1Q27.2 -24.7 27.2 -25.9Q27.2 -26.3 27.4 -27.4Q27.7 -28.7 27.7 -29.7Q27.7 -31.6 26.6 -32.7Q25.4 -33.9 23.1 -33.9Q19.1 -33.9 16.9 -31.2Q14.7 -28.6 14.1 -22.9L13 -12.5Q12.8 -10.3 12.4 -8.6Q15.4 -8.1 19.8 -7Q22.4 -6.4 23.7 -6.1Q25.1 -5.8 26.2 -5.8Q28.8 -5.8 30.8 -6.7Q32.7 -7.6 34.4 -9.6Q34.9 -10.3 35.6 -10.3Q36.2 -10.3 36.5 -9.7Q36.9 -9.2 36.9 -8.2Z M55 -8.2Q55 -6.3 54.1 -5.3Q52.4 -3.3 49.3 -1.5Q46.2 0.2 42.6 0.2Q37.8 0.2 35.1 -2.4Q32.5 -5 32.5 -9.6Q32.5 -12.7 33.8 -15.5Q35.1 -18.2 37.5 -19.8Q39.9 -21.4 42.9 -21.4Q45.5 -21.4 47.1 -19.8Q48.8 -18.3 48.8 -15.5Q48.8 -12.4 46.5 -10.1Q44.2 -7.8 38.8 -6.5Q39.9 -4.4 43.1 -4.4Q45.2 -4.4 47.9 -5.8Q50.5 -7.3 52.4 -9.6Q53 -10.3 53.7 -10.3Q54.3 -10.3 54.6 -9.7Q55 -9.2 55 -8.2ZM38 -10.2V-10.1Q40.8 -10.7 42.3 -12Q43.9 -13.3 43.9 -15Q43.9 -15.9 43.4 -16.4Q42.9 -16.9 42.1 -16.9Q40.4 -16.9 39.2 -14.9Q38 -13 38 -10.2Z M50.6 -7.3Q50.6 -10.9 52.3 -14.2Q54.1 -17.5 56.9 -19.5Q59.7 -21.5 62.9 -21.5Q63.9 -21.5 64.2 -21.1Q64.6 -20.7 64.8 -19.7Q65.8 -19.9 66.8 -19.9Q69.1 -19.9 69.1 -18.3Q69.1 -17.3 68.4 -13.7Q67.3 -8.4 67.3 -6.3Q67.3 -5.7 67.7 -5.2Q68 -4.8 68.6 -4.8Q69.5 -4.8 70.7 -6Q71.9 -7.1 74.1 -9.6Q74.6 -10.3 75.3 -10.3Q75.9 -10.3 76.2 -9.7Q76.6 -9.2 76.6 -8.2Q76.6 -6.3 75.7 -5.3Q73.8 -3 71.7 -1.4Q69.6 0.2 67.6 0.2Q66.1 0.2 64.8 -0.8Q63.6 -1.8 62.9 -3.6Q60.5 0.2 56.9 0.2Q54.1 0.2 52.3 -1.8Q50.6 -3.9 50.6 -7.3ZM61.8 -8.8 63.5 -17.2Q61.6 -17.2 60 -15.8Q58.3 -14.4 57.4 -12.1Q56.4 -9.8 56.4 -7.2Q56.4 -5.8 57 -5.1Q57.5 -4.4 58.6 -4.4Q59.6 -4.4 60.5 -5.6Q61.4 -6.8 61.8 -8.8Z M73 -7.5Q73 -13.5 74.7 -18.9Q75.1 -20.2 76 -20.8Q77 -21.4 78.7 -21.4Q79.6 -21.4 79.9 -21.2Q80.3 -21 80.3 -20.3Q80.3 -19.6 79.6 -17Q79.2 -15.2 78.9 -13.8Q78.6 -12.4 78.4 -10.4Q79.9 -14.4 81.8 -16.8Q83.7 -19.3 85.5 -20.4Q87.4 -21.4 88.9 -21.4Q91.9 -21.4 91.9 -18.4Q91.9 -17.8 91.4 -15.5Q91.1 -13.7 91.1 -13.2Q91.1 -11.6 92.2 -11.6Q93.5 -11.6 95.5 -13.7Q96.1 -14.3 96.8 -14.3Q97.4 -14.3 97.7 -13.7Q98.1 -13.2 98.1 -12.3Q98.1 -10.6 97.2 -9.7Q95.9 -8.3 94.1 -7.4Q92.4 -6.4 90.5 -6.4Q88 -6.4 86.8 -7.7Q85.5 -8.9 85.5 -11Q85.5 -11.7 85.7 -12.4Q85.7 -13.3 85.7 -13.7Q85.7 -14.4 85.2 -14.4Q84.5 -14.4 83.4 -12.9Q82.3 -11.3 81.2 -8.8Q80.1 -6.3 79.4 -3.4Q78.9 -1.3 78.2 -0.5Q77.6 0.2 76.1 0.2Q74.4 0.2 73.7 -1.6Q73 -3.4 73 -7.5Z M93.9 -7.5Q93.9 -13.5 95.6 -18.9Q96 -20.2 96.9 -20.8Q97.9 -21.4 99.6 -21.4Q100.5 -21.4 100.9 -21.2Q101.2 -21 101.2 -20.3Q101.2 -19.6 100.6 -17Q100.1 -15.2 99.8 -13.8Q99.5 -12.4 99.4 -10.4Q100.9 -14.4 102.8 -16.8Q104.7 -19.3 106.5 -20.4Q108.3 -21.4 109.8 -21.4Q112.8 -21.4 112.8 -18.4Q112.8 -16.7 111.8 -12Q110.9 -8 110.9 -6.7Q110.9 -4.8 112.2 -4.8Q113.2 -4.8 114.4 -6Q115.7 -7.1 117.8 -9.6Q118.4 -10.3 119 -10.3Q119.6 -10.3 120 -9.7Q120.3 -9.2 120.3 -8.2Q120.3 -6.3 119.5 -5.3Q117.5 -2.9 115.2 -1.3Q112.9 0.2 110 0.2Q107.7 0.2 106.5 -1.1Q105.3 -2.5 105.3 -5.1Q105.3 -6.3 105.9 -9.7Q106.5 -12.6 106.5 -13.7Q106.5 -14.4 106 -14.4Q105.4 -14.4 104.4 -12.9Q103.3 -11.3 102.1 -8.8Q101 -6.3 100.3 -3.4Q99.8 -1.3 99.2 -0.5Q98.5 0.2 97.1 0.2Q95.3 0.2 94.6 -1.6Q93.9 -3.4 93.9 -7.5Z M118.8 -27.9Q118.8 -29.5 120 -30.6Q121.3 -31.6 123.2 -31.6Q124.9 -31.6 125.9 -30.8Q127 -30 127 -28.5Q127 -26.6 125.8 -25.6Q124.6 -24.5 122.6 -24.5Q120.7 -24.5 119.7 -25.4Q118.8 -26.3 118.8 -27.9ZM116.6 -7.5Q116.6 -9.6 117.1 -12.8Q117.6 -16.1 118.5 -18.9Q118.9 -20.3 119.6 -20.9Q120.2 -21.4 121.8 -21.4Q124.1 -21.4 124.1 -19.9Q124.1 -18.7 123.2 -14.5Q122.1 -9.5 122.1 -7.7Q122.1 -6.3 122.5 -5.6Q122.9 -4.8 123.7 -4.8Q124.6 -4.8 125.8 -6Q127.1 -7.1 129.1 -9.6Q129.7 -10.3 130.4 -10.3Q131 -10.3 131.3 -9.7Q131.7 -9.2 131.7 -8.2Q131.7 -6.3 130.8 -5.3Q126.2 0.2 122.3 0.2Q119.3 0.2 117.9 -1.9Q116.6 -4 116.6 -7.5Z M128 -7.5Q128 -13.5 129.7 -18.9Q130.1 -20.2 131.1 -20.8Q132 -21.4 133.7 -21.4Q134.6 -21.4 135 -21.2Q135.4 -21 135.4 -20.3Q135.4 -19.6 134.7 -17Q134.2 -15.2 134 -13.8Q133.7 -12.4 133.5 -10.4Q135 -14.4 136.9 -16.8Q138.8 -19.3 140.6 -20.4Q142.4 -21.4 143.9 -21.4Q146.9 -21.4 146.9 -18.4Q146.9 -16.7 145.9 -12Q145 -8 145 -6.7Q145 -4.8 146.4 -4.8Q147.3 -4.8 148.6 -6Q149.8 -7.1 151.9 -9.6Q152.5 -10.3 153.2 -10.3Q153.8 -10.3 154.1 -9.7Q154.5 -9.2 154.5 -8.2Q154.5 -6.3 153.6 -5.3Q151.6 -2.9 149.3 -1.3Q147.1 0.2 144.2 0.2Q141.8 0.2 140.6 -1.1Q139.4 -2.5 139.4 -5.1Q139.4 -6.3 140.1 -9.7Q140.7 -12.6 140.7 -13.7Q140.7 -14.4 140.2 -14.4Q139.6 -14.4 138.5 -12.9Q137.4 -11.3 136.3 -8.8Q135.1 -6.3 134.5 -3.4Q134 -1.3 133.3 -0.5Q132.6 0.2 131.2 0.2Q129.4 0.2 128.7 -1.6Q128 -3.4 128 -7.5Z M175.6 -8.1Q175.6 -7.1 175.3 -6.5Q174.9 -5.9 174.2 -5.4Q170.3 -2.8 168.5 -1.5L165.5 0.5Q163.8 10 160.9 15.5Q158.1 20.9 153.7 20.9Q151.4 20.9 149.9 19.5Q148.4 18 148.4 15.7Q148.4 12.4 151 8.7Q153.6 4.9 160.7 -0.6L161 -2.3Q160.2 -1.1 158.9 -0.4Q157.6 0.2 156.4 0.2Q153.5 0.2 151.8 -1.8Q150.1 -3.9 150.1 -7.3Q150.1 -10.9 151.8 -14.2Q153.5 -17.5 156.4 -19.5Q159.2 -21.5 162.4 -21.5Q163.4 -21.5 163.7 -21.1Q164.1 -20.7 164.3 -19.7Q165.2 -19.9 166.3 -19.9Q167.5 -19.9 168 -19.6Q168.5 -19.2 168.5 -18.2Q168.5 -17.7 168.4 -17.3Q168.2 -15.9 167.3 -10.1Q167.1 -9 166.9 -7.7Q166.7 -6.4 166.4 -4.9Q170 -7.7 173.2 -9.8Q173.8 -10.2 174.3 -10.2Q174.9 -10.2 175.2 -9.6Q175.6 -9 175.6 -8.1ZM161.5 -9.4 162.9 -17.2Q161 -17.2 159.4 -15.8Q157.8 -14.4 156.9 -12.1Q155.9 -9.8 155.9 -7.2Q155.9 -5.8 156.5 -5.1Q157 -4.4 158.1 -4.4Q159.1 -4.4 160.1 -5.7Q161 -7 161.5 -9.4ZM159.6 4.9Q156.1 8 154.5 10.4Q152.9 12.8 152.9 14.7Q152.9 15.5 153.2 16Q153.5 16.5 154.2 16.5Q155.4 16.5 156.8 13.7Q158.3 10.9 159.6 4.9Z  M184.4 -7.3Q184.4 -10.9 186.1 -14.2Q187.8 -17.5 190.6 -19.5Q193.4 -21.5 196.6 -21.5Q197.6 -21.5 198 -21.1Q198.3 -20.7 198.5 -19.7Q199.5 -19.9 200.6 -19.9Q202.8 -19.9 202.8 -18.3Q202.8 -17.3 202.1 -13.7Q201.1 -8.4 201.1 -6.3Q201.1 -5.7 201.4 -5.2Q201.8 -4.8 202.3 -4.8Q203.2 -4.8 204.4 -6Q205.7 -7.1 207.8 -9.6Q208.3 -10.3 209 -10.3Q209.6 -10.3 210 -9.7Q210.3 -9.2 210.3 -8.2Q210.3 -6.3 209.4 -5.3Q207.6 -3 205.4 -1.4Q203.3 0.2 201.3 0.2Q199.8 0.2 198.6 -0.8Q197.3 -1.8 196.7 -3.6Q194.3 0.2 190.6 0.2Q187.8 0.2 186.1 -1.8Q184.4 -3.9 184.4 -7.3ZM195.5 -8.8 197.2 -17.2Q195.3 -17.2 193.7 -15.8Q192.1 -14.4 191.1 -12.1Q190.1 -9.8 190.1 -7.2Q190.1 -5.8 190.7 -5.1Q191.3 -4.4 192.3 -4.4Q193.3 -4.4 194.2 -5.6Q195.1 -6.8 195.5 -8.8Z M206.7 -7.5Q206.7 -13.5 208.4 -18.9Q208.8 -20.2 209.7 -20.8Q210.7 -21.4 212.4 -21.4Q213.3 -21.4 213.7 -21.2Q214 -21 214 -20.3Q214 -19.6 213.3 -17Q212.9 -15.2 212.6 -13.8Q212.3 -12.4 212.2 -10.4Q213.7 -14.4 215.6 -16.8Q217.4 -19.3 219.3 -20.4Q221.1 -21.4 222.6 -21.4Q225.6 -21.4 225.6 -18.4Q225.6 -16.7 224.6 -12Q223.7 -8 223.7 -6.7Q223.7 -4.8 225 -4.8Q226 -4.8 227.2 -6Q228.5 -7.1 230.6 -9.6Q231.1 -10.3 231.8 -10.3Q232.4 -10.3 232.8 -9.7Q233.1 -9.2 233.1 -8.2Q233.1 -6.3 232.3 -5.3Q230.3 -2.9 228 -1.3Q225.7 0.2 222.8 0.2Q220.5 0.2 219.3 -1.1Q218.1 -2.5 218.1 -5.1Q218.1 -6.3 218.7 -9.7Q219.3 -12.6 219.3 -13.7Q219.3 -14.4 218.8 -14.4Q218.2 -14.4 217.1 -12.9Q216.1 -11.3 214.9 -8.8Q213.8 -6.3 213.1 -3.4Q212.6 -1.3 211.9 -0.5Q211.3 0.2 209.9 0.2Q208.1 0.2 207.4 -1.6Q206.7 -3.4 206.7 -7.5Z M256.8 -8.2Q256.8 -6.3 255.9 -5.3Q254.1 -3 251.8 -1.4Q249.5 0.2 247.3 0.2Q243.8 0.2 242 -3.9Q240.1 -1.4 238.6 -0.6Q237.2 0.2 235.2 0.2Q232.4 0.2 230.6 -1.9Q228.8 -4 228.8 -7.3Q228.8 -11 230.4 -14.1Q231.9 -17.3 234.7 -19.3Q237.4 -21.3 240.8 -21.7Q241.7 -30.6 244.1 -36.9Q246.6 -43.2 250.6 -43.2Q252.6 -43.2 253.9 -41.4Q255.2 -39.7 255.2 -36Q255.2 -30.9 252.7 -24Q250.1 -17.1 245.9 -9.8Q246.1 -7.1 246.7 -6Q247.3 -4.8 248.3 -4.8Q249.5 -4.8 250.8 -5.9Q252.1 -7 254.3 -9.6Q254.8 -10.3 255.5 -10.3Q256.1 -10.3 256.5 -9.7Q256.8 -9.2 256.8 -8.2ZM246 -17Q251.1 -28.2 251.1 -35.1Q251.1 -36.8 250.8 -37.8Q250.5 -38.7 250.1 -38.7Q249.2 -38.7 248.4 -35.6Q247.5 -32.5 246.9 -27.5Q246.2 -22.5 246 -17ZM240.8 -7.8Q240.3 -10.3 240.3 -13.3Q240.3 -14.4 240.4 -16.9Q237.9 -16.1 236.2 -13.5Q234.6 -10.9 234.6 -7.8Q234.6 -4.4 236.9 -4.4Q237.7 -4.4 238.6 -5.1Q239.5 -5.8 240.8 -7.8Z  M266 -16Q266 -22.8 268.6 -28Q271.1 -33.3 275.5 -36.1Q279.9 -39 285.2 -39Q290.2 -39 292.7 -36.5Q295.3 -33.9 295.3 -29.7Q295.3 -26.9 294.3 -25.2Q293.3 -23.5 291.5 -23.5Q290.2 -23.5 289.5 -24.1Q288.7 -24.7 288.7 -25.9Q288.7 -26.3 288.9 -27.4Q289.2 -28.8 289.2 -29.6Q289.2 -33.8 284.7 -33.8Q281.7 -33.8 278.9 -31.8Q276.2 -29.8 274.5 -26Q272.8 -22.1 272.8 -16.8Q272.8 -11.3 275.9 -8.3Q278.9 -5.3 285 -5.3Q288 -5.3 291 -6Q294.1 -6.8 297.8 -8.4Q298.5 -8.6 299 -8.6Q299.7 -8.6 300.1 -8.1Q300.4 -7.5 300.4 -6.7Q300.4 -3.9 297.4 -2.5Q294.1 -1.1 290.6 -0.4Q287.1 0.2 283.9 0.2Q278.4 0.2 274.4 -1.8Q270.3 -3.8 268.2 -7.5Q266 -11.1 266 -16Z M318.6 -8.2Q318.6 -6.3 317.8 -5.3Q316.1 -3.3 313 -1.5Q309.9 0.2 306.3 0.2Q301.5 0.2 298.8 -2.4Q296.1 -5 296.1 -9.6Q296.1 -12.7 297.5 -15.5Q298.8 -18.2 301.2 -19.8Q303.6 -21.4 306.5 -21.4Q309.2 -21.4 310.8 -19.8Q312.4 -18.3 312.4 -15.5Q312.4 -12.4 310.2 -10.1Q307.9 -7.8 302.4 -6.5Q303.6 -4.4 306.8 -4.4Q308.9 -4.4 311.5 -5.8Q314.2 -7.3 316.1 -9.6Q316.7 -10.3 317.4 -10.3Q318 -10.3 318.3 -9.7Q318.6 -9.2 318.6 -8.2ZM301.7 -10.2V-10.1Q304.4 -10.7 306 -12Q307.6 -13.3 307.6 -15Q307.6 -15.9 307.1 -16.4Q306.6 -16.9 305.8 -16.9Q304.1 -16.9 302.9 -14.9Q301.7 -13 301.7 -10.2Z M315 -7.5Q315 -13.5 316.7 -18.9Q317.1 -20.2 318.1 -20.8Q319 -21.4 320.7 -21.4Q321.6 -21.4 322 -21.2Q322.4 -21 322.4 -20.3Q322.4 -19.6 321.7 -17Q321.2 -15.2 320.9 -13.8Q320.7 -12.4 320.5 -10.4Q322 -14.4 323.9 -16.8Q325.8 -19.3 327.6 -20.4Q329.4 -21.4 330.9 -21.4Q333.9 -21.4 333.9 -18.4Q333.9 -17.8 333.5 -15.5Q333.1 -13.7 333.1 -13.2Q333.1 -11.6 334.3 -11.6Q335.6 -11.6 337.6 -13.7Q338.2 -14.3 338.8 -14.3Q339.4 -14.3 339.8 -13.7Q340.1 -13.2 340.1 -12.3Q340.1 -10.6 339.2 -9.7Q337.9 -8.3 336.2 -7.4Q334.5 -6.4 332.5 -6.4Q330.1 -6.4 328.8 -7.7Q327.6 -8.9 327.6 -11Q327.6 -11.7 327.7 -12.4Q327.8 -13.3 327.8 -13.7Q327.8 -14.4 327.3 -14.4Q326.6 -14.4 325.5 -12.9Q324.3 -11.3 323.2 -8.8Q322.1 -6.3 321.4 -3.4Q320.9 -1.3 320.3 -0.5Q319.6 0.2 318.2 0.2Q316.4 0.2 315.7 -1.6Q315 -3.4 315 -7.5Z M357.6 -8.2Q357.6 -6.3 356.8 -5.3Q354.8 -2.9 352.5 -1.3Q350.1 0.2 347.1 0.2Q337.7 0.2 337.7 -13Q337.7 -15 337.8 -17.1H336Q334.6 -17.1 334.2 -17.6Q333.7 -18.1 333.7 -19.2Q333.7 -21.8 335.8 -21.8H338.4Q339.2 -26.8 340.8 -31Q342.4 -35.2 344.7 -37.7Q346.9 -40.2 349.6 -40.2Q351.5 -40.2 352.6 -38.5Q353.7 -36.8 353.7 -34.2Q353.7 -27 347.7 -21.8H352.9Q353.6 -21.8 353.9 -21.4Q354.2 -21.1 354.2 -20.2Q354.2 -17.1 349 -17.1H343.4Q343.3 -14.8 343.3 -13.5Q343.3 -8.7 344.5 -6.8Q345.6 -4.8 348 -4.8Q350 -4.8 351.5 -6Q353 -7.2 355.1 -9.6Q355.7 -10.3 356.4 -10.3Q357 -10.3 357.3 -9.7Q357.6 -9.2 357.6 -8.2ZM343.9 -22.4Q346.6 -24.8 348 -27.7Q349.3 -30.6 349.3 -33Q349.3 -35.7 348.3 -35.7Q347.6 -35.7 346.8 -34Q345.9 -32.3 345.2 -29.2Q344.4 -26.2 343.9 -22.4Z M356.1 -27.9Q356.1 -29.5 357.4 -30.6Q358.6 -31.6 360.5 -31.6Q362.2 -31.6 363.3 -30.8Q364.3 -30 364.3 -28.5Q364.3 -26.6 363.1 -25.6Q361.9 -24.5 359.9 -24.5Q358 -24.5 357.1 -25.4Q356.1 -26.3 356.1 -27.9ZM353.9 -7.5Q353.9 -9.6 354.4 -12.8Q354.9 -16.1 355.8 -18.9Q356.2 -20.3 356.9 -20.9Q357.6 -21.4 359.1 -21.4Q361.4 -21.4 361.4 -19.9Q361.4 -18.7 360.5 -14.5Q359.4 -9.5 359.4 -7.7Q359.4 -6.3 359.8 -5.6Q360.2 -4.8 361.1 -4.8Q361.9 -4.8 363.1 -6Q364.4 -7.1 366.4 -9.6Q367 -10.3 367.7 -10.3Q368.3 -10.3 368.6 -9.7Q369 -9.2 369 -8.2Q369 -6.3 368.1 -5.3Q363.5 0.2 359.6 0.2Q356.6 0.2 355.2 -1.9Q353.9 -4 353.9 -7.5Z M384.9 -10.9Q384.9 -7.3 379.2 -7.3Q378.1 -7.3 376 -7.7Q376.6 -4.9 377 -1.4Q377.4 2.1 377.4 4.3Q377.4 9.3 375.8 11.9Q374.2 14.5 371.5 14.5Q368.2 14.5 366.8 9.8Q365.4 5.2 365.4 -4.3Q365.4 -13.2 367.3 -22.2Q369.2 -31.3 372.6 -37.3Q375.9 -43.2 379.9 -43.2Q382.1 -43.2 383.3 -41.3Q384.5 -39.4 384.5 -36.1Q384.5 -25.3 371.6 -12.6Q371.1 -8.1 371.1 -4.6Q371.1 0.1 371.4 5.1Q371.8 10.1 372.5 10.1Q373.9 10.1 373.9 5.3Q373.9 1.7 373.4 -1.7Q372.9 -5 372.1 -8.7Q372 -9.3 372.5 -10.3Q372.9 -11.2 373.6 -11.9Q374.2 -12.6 374.7 -12.6Q375.6 -12.6 376.9 -12.5Q377.3 -12.4 377.9 -12.4Q379.7 -12.4 382 -12.7Q382.4 -12.8 382.8 -12.8Q383.2 -12.9 383.6 -12.9Q384.9 -12.9 384.9 -10.9ZM372.4 -18.7Q376.1 -22.9 378.1 -27.4Q380.1 -31.9 380.1 -35.9Q380.1 -38.7 378.9 -38.7Q378.1 -38.7 376.9 -35.9Q375.7 -33.1 374.5 -28.5Q373.3 -23.8 372.4 -18.7Z M384.5 -27.9Q384.5 -29.5 385.7 -30.6Q387 -31.6 388.9 -31.6Q390.6 -31.6 391.6 -30.8Q392.7 -30 392.7 -28.5Q392.7 -26.6 391.5 -25.6Q390.3 -24.5 388.3 -24.5Q386.4 -24.5 385.4 -25.4Q384.5 -26.3 384.5 -27.9ZM382.3 -7.5Q382.3 -9.6 382.8 -12.8Q383.3 -16.1 384.1 -18.9Q384.6 -20.3 385.2 -20.9Q385.9 -21.4 387.5 -21.4Q389.8 -21.4 389.8 -19.9Q389.8 -18.7 388.9 -14.5Q387.8 -9.5 387.8 -7.7Q387.8 -6.3 388.2 -5.6Q388.6 -4.8 389.4 -4.8Q390.3 -4.8 391.5 -6Q392.7 -7.1 394.8 -9.6Q395.4 -10.3 396.1 -10.3Q396.7 -10.3 397 -9.7Q397.3 -9.2 397.3 -8.2Q397.3 -6.3 396.5 -5.3Q391.9 0.2 388 0.2Q385 0.2 383.6 -1.9Q382.3 -4 382.3 -7.5Z M392.9 -9.1Q392.9 -12.8 394.4 -15.6Q395.8 -18.4 398.2 -19.9Q400.5 -21.4 403.1 -21.4Q405.6 -21.4 407 -19.9Q408.4 -18.4 408.4 -16.1Q408.4 -14.2 407.6 -12.8Q406.7 -11.5 405.4 -11.5Q404.5 -11.5 403.9 -11.9Q403.4 -12.3 403.4 -13.1Q403.4 -13.4 403.5 -13.8Q403.6 -14.2 403.6 -14.4Q403.9 -15.1 403.9 -15.7Q403.9 -16.3 403.6 -16.6Q403.3 -16.9 402.7 -16.9Q401.7 -16.9 400.8 -16Q399.8 -15 399.3 -13.4Q398.7 -11.8 398.7 -9.9Q398.7 -4.6 403.4 -4.6Q405.3 -4.6 407.4 -5.8Q409.6 -7.1 411.7 -9.6Q412.3 -10.3 413 -10.3Q413.6 -10.3 413.9 -9.7Q414.3 -9.2 414.3 -8.2Q414.3 -6.4 413.4 -5.3Q411.2 -2.7 408.2 -1.2Q405.2 0.2 402.4 0.2Q397.9 0.2 395.4 -2.3Q392.9 -4.9 392.9 -9.1Z M410 -7.3Q410 -10.9 411.7 -14.2Q413.4 -17.5 416.2 -19.5Q419 -21.5 422.2 -21.5Q423.2 -21.5 423.5 -21.1Q423.9 -20.7 424.1 -19.7Q425.1 -19.9 426.1 -19.9Q428.4 -19.9 428.4 -18.3Q428.4 -17.3 427.7 -13.7Q426.6 -8.4 426.6 -6.3Q426.6 -5.7 427 -5.2Q427.3 -4.8 427.9 -4.8Q428.8 -4.8 430 -6Q431.2 -7.1 433.4 -9.6Q433.9 -10.3 434.6 -10.3Q435.2 -10.3 435.6 -9.7Q435.9 -9.2 435.9 -8.2Q435.9 -6.3 435 -5.3Q433.1 -3 431 -1.4Q428.9 0.2 426.9 0.2Q425.4 0.2 424.1 -0.8Q422.9 -1.8 422.2 -3.6Q419.8 0.2 416.2 0.2Q413.4 0.2 411.7 -1.8Q410 -3.9 410 -7.3ZM421.1 -8.8 422.8 -17.2Q420.9 -17.2 419.3 -15.8Q417.6 -14.4 416.7 -12.1Q415.7 -9.8 415.7 -7.2Q415.7 -5.8 416.3 -5.1Q416.9 -4.4 417.9 -4.4Q418.9 -4.4 419.8 -5.6Q420.7 -6.8 421.1 -8.8Z M454 -8.2Q454 -6.3 453.1 -5.3Q451.1 -2.9 448.8 -1.3Q446.4 0.2 443.4 0.2Q434 0.2 434 -13Q434 -15 434.1 -17.1H432.4Q431 -17.1 430.5 -17.6Q430 -18.1 430 -19.2Q430 -21.8 432.1 -21.8H434.7Q435.5 -26.8 437.1 -31Q438.7 -35.2 441 -37.7Q443.3 -40.2 445.9 -40.2Q447.8 -40.2 448.9 -38.5Q450 -36.8 450 -34.2Q450 -27 444 -21.8H449.2Q449.9 -21.8 450.2 -21.4Q450.6 -21.1 450.6 -20.2Q450.6 -17.1 445.4 -17.1H439.8Q439.7 -14.8 439.7 -13.5Q439.7 -8.7 440.8 -6.8Q441.9 -4.8 444.4 -4.8Q446.3 -4.8 447.9 -6Q449.4 -7.2 451.4 -9.6Q452 -10.3 452.7 -10.3Q453.3 -10.3 453.6 -9.7Q454 -9.2 454 -8.2ZM440.2 -22.4Q442.9 -24.8 444.3 -27.7Q445.6 -30.6 445.6 -33Q445.6 -35.7 444.6 -35.7Q443.9 -35.7 443.1 -34Q442.2 -32.3 441.5 -29.2Q440.7 -26.2 440.2 -22.4Z M452.4 -27.9Q452.4 -29.5 453.7 -30.6Q454.9 -31.6 456.8 -31.6Q458.5 -31.6 459.6 -30.8Q460.6 -30 460.6 -28.5Q460.6 -26.6 459.4 -25.6Q458.3 -24.5 456.3 -24.5Q454.3 -24.5 453.4 -25.4Q452.4 -26.3 452.4 -27.9ZM450.2 -7.5Q450.2 -9.6 450.7 -12.8Q451.3 -16.1 452.1 -18.9Q452.5 -20.3 453.2 -20.9Q453.9 -21.4 455.4 -21.4Q457.7 -21.4 457.7 -19.9Q457.7 -18.7 456.9 -14.5Q455.8 -9.5 455.8 -7.7Q455.8 -6.3 456.1 -5.6Q456.5 -4.8 457.4 -4.8Q458.2 -4.8 459.4 -6Q460.7 -7.1 462.8 -9.6Q463.3 -10.3 464 -10.3Q464.6 -10.3 464.9 -9.7Q465.3 -9.2 465.3 -8.2Q465.3 -6.3 464.4 -5.3Q459.9 0.2 455.9 0.2Q452.9 0.2 451.6 -1.9Q450.2 -4 450.2 -7.5Z M486.3 -12Q486.3 -9.8 484.9 -9.4Q482.2 -8.4 478.9 -8.3Q478 -4.4 475.4 -2.1Q472.8 0.2 469.6 0.2Q466.8 0.2 464.9 -1.1Q462.9 -2.4 461.9 -4.6Q460.9 -6.9 460.9 -9.4Q460.9 -12.9 462.2 -15.7Q463.5 -18.4 465.9 -19.9Q468.2 -21.5 471.1 -21.5Q474.6 -21.5 476.7 -19.1Q478.9 -16.7 479.2 -13.1Q481.4 -13.2 484.4 -14Q484.7 -14.1 485 -14.1Q485.6 -14.1 485.9 -13.5Q486.3 -12.9 486.3 -12ZM473.9 -9.3Q472.5 -10.3 471.8 -11.8Q471 -13.4 471 -15.1Q471 -15.9 471.1 -16.6H470.9Q469.1 -16.6 467.8 -14.8Q466.6 -13.1 466.6 -9.8Q466.6 -7.3 467.6 -6Q468.6 -4.6 469.9 -4.6Q471.4 -4.6 472.5 -5.8Q473.6 -7 473.9 -9.3Z M482.4 -7.5Q482.4 -13.5 484.1 -18.9Q484.5 -20.2 485.5 -20.8Q486.4 -21.4 488.1 -21.4Q489 -21.4 489.4 -21.2Q489.8 -21 489.8 -20.3Q489.8 -19.6 489.1 -17Q488.6 -15.2 488.3 -13.8Q488.1 -12.4 487.9 -10.4Q489.4 -14.4 491.3 -16.8Q493.2 -19.3 495 -20.4Q496.8 -21.4 498.3 -21.4Q501.3 -21.4 501.3 -18.4Q501.3 -16.7 500.3 -12Q499.4 -8 499.4 -6.7Q499.4 -4.8 500.8 -4.8Q501.7 -4.8 502.9 -6Q504.2 -7.1 506.3 -9.6Q506.9 -10.3 507.6 -10.3Q508.2 -10.3 508.5 -9.7Q508.9 -9.2 508.9 -8.2Q508.9 -6.3 508 -5.3Q506 -2.9 503.7 -1.3Q501.4 0.2 498.5 0.2Q496.2 0.2 495 -1.1Q493.8 -2.5 493.8 -5.1Q493.8 -6.3 494.5 -9.7Q495.1 -12.6 495.1 -13.7Q495.1 -14.4 494.5 -14.4Q493.9 -14.4 492.9 -12.9Q491.8 -11.3 490.7 -8.8Q489.5 -6.3 488.8 -3.4Q488.3 -1.3 487.7 -0.5Q487 0.2 485.6 0.2Q483.8 0.2 483.1 -1.6Q482.4 -3.4 482.4 -7.5Z M508.8 -2.3Q508.8 -3.5 509.6 -4.4Q510.5 -5.3 512.2 -5.3Q512.8 -5.3 513.6 -5.2Q514.4 -5.1 514.8 -5Q514.8 -6.2 514.3 -7.3Q513.8 -8.3 513.1 -9.3Q512.3 -10.3 511.7 -11Q510.3 -8.3 508.9 -6.5Q507.5 -4.7 505.8 -3.1Q505 -2.3 504.1 -2.3Q503.3 -2.3 502.9 -2.8Q502.4 -3.4 502.4 -4.1Q502.4 -5.1 503.1 -5.8L503.7 -6.6Q506.2 -9.7 507.5 -11.7Q508.3 -13.1 509.3 -15.3Q510.4 -17.5 511.4 -19.9Q512.3 -21.9 515 -21.9Q516.3 -21.9 516.8 -21.7Q517.3 -21.5 517.3 -21Q517.3 -20.7 517.1 -20.1Q516.9 -19.5 516.6 -18.9Q515.8 -17.2 515.8 -16.1Q515.8 -15.4 516.3 -14.6Q516.8 -13.8 517.8 -12.5Q519.2 -10.6 520 -9.2Q520.8 -7.9 520.8 -6.3Q520.8 -5.8 520.7 -5Q522.9 -5.8 526 -9.6Q526.5 -10.3 527.2 -10.3Q527.8 -10.3 528.1 -9.7Q528.5 -9.2 528.5 -8.2Q528.5 -6.4 527.6 -5.3Q525.3 -2.5 523.2 -1.4Q521.1 -0.4 518.1 -0.3Q516.2 1.2 513.7 1.2Q511.3 1.2 510 0.1Q508.8 -1 508.8 -2.3Z" fill="url(#pg)" /><g transform="translate(199,46)"><path d="M0,.9 C-1.5,-.3 -1,-1.1 -.45,-1.1 C-.15,-1.1 0,-.85 0,-.7 C0,-.85 .15,-1.1 .45,-1.1 C1,-1.1 1.5,-.3 0,.9Z" fill="#F27FBC" transform="scale(9)"><animateTransform attributeName="transform" type="scale" values="8;11;8" dur="1.8s" begin="0s" repeatCount="indefinite"/></path></g><g transform="translate(801,46)"><path d="M0,.9 C-1.5,-.3 -1,-1.1 -.45,-1.1 C-.15,-1.1 0,-.85 0,-.7 C0,-.85 .15,-1.1 .45,-1.1 C1,-1.1 1.5,-.3 0,.9Z" fill="#F27FBC" transform="scale(9)"><animateTransform attributeName="transform" type="scale" values="8;11;8" dur="1.8s" begin="0.8s" repeatCount="indefinite"/></path></g><g transform="translate(164.72000000000003,28)"><path d="M0,-1 C.14,-.3 .3,-.14 1,0 C.3,.14 .14,.3 0,1 C-.14,.3 -.3,.14 -1,0 C-.3,-.14 -.14,-.3 0,-1Z" fill="#B98BE8" transform="scale(7)"><animate attributeName="opacity" values=".15;1;.15" dur="2.6s" begin="0.3s" repeatCount="indefinite"/><animateTransform attributeName="transform" type="scale" values="4.20;7.00;4.20" dur="2.6s" begin="0.3s" repeatCount="indefinite"/></path></g><g transform="translate(835.28,64)"><path d="M0,-1 C.14,-.3 .3,-.14 1,0 C.3,.14 .14,.3 0,1 C-.14,.3 -.3,.14 -1,0 C-.3,-.14 -.14,-.3 0,-1Z" fill="#B98BE8" transform="scale(7)"><animate attributeName="opacity" values=".15;1;.15" dur="2.6s" begin="1.1s" repeatCount="indefinite"/><animateTransform attributeName="transform" type="scale" values="4.20;7.00;4.20" dur="2.6s" begin="1.1s" repeatCount="indefinite"/></path></g></svg>