<svg xmlns="http://www.w3.org/2000/svg" width="1000" height="96" viewBox="0 0 1000 96"><defs><filter id="sh" x="-10%" y="-10%" width="120%" height="135%"><feDropShadow dx="0" dy="6" stdDeviation="7" flood-color="#E85A9B" flood-opacity=".17"/></filter>
<linearGradient id="card" x1="0" y1="0" x2="0" y2="1"><stop offset="0" stop-color="#FFFFFF"/><stop offset="1" stop-color="#FFF0F7"/></linearGradient>
<linearGradient id="shim" x1="0" x2="1"><stop offset="0" stop-color="#fff" stop-opacity="0"/><stop offset=".5" stop-color="#fff" stop-opacity=".85"/><stop offset="1" stop-color="#fff" stop-opacity="0"/></linearGradient>
<linearGradient id="pg" x1="0" x2="1"><stop offset="0" stop-color="#E85A9B"/><stop offset="1" stop-color="#B98BE8"/></linearGradient><linearGradient id="lg1" x1="0" x2="1"><stop offset="0" stop-color="#D8B4F8" stop-opacity="0"/><stop offset="1" stop-color="#E85A9B"/></linearGradient><linearGradient id="lg2" x1="0" x2="1"><stop offset="0" stop-color="#E85A9B"/><stop offset="1" stop-color="#D8B4F8" stop-opacity="0"/></linearGradient></defs><style>text{font-family:'Segoe UI',system-ui,-apple-system,Helvetica,Arial,sans-serif}.dash{stroke-dasharray:7 9;animation:dm 1.6s linear infinite}@keyframes dm{to{stroke-dashoffset:-32}}</style><line class="dash" x1="40" y1="46" x2="312" y2="46" stroke="url(#lg1)" stroke-width="3" stroke-linecap="round"/><line class="dash" x1="688" y1="46" x2="960" y2="46" stroke="url(#lg2)" stroke-width="3" stroke-linecap="round"/><path transform="translate(364.3,62)" d="M42.3 -8.1Q42.3 -7.1 42 -6.5Q41.7 -5.9 41 -5.4Q38.3 -3.6 32.3 0.5Q30.5 10 27.7 15.5Q24.8 20.9 20.5 20.9Q18.1 20.9 16.7 19.5Q15.2 18 15.2 15.7Q15.2 13.5 16.1 11.3Q17.1 9.1 19.8 6.2Q22.4 3.3 27.2 -0.4L27.4 -1.3Q23.7 0.2 20.2 0.2Q15.1 0.2 11.2 -1.8Q7.3 -3.8 5.1 -7.5Q2.9 -11.1 2.9 -16Q2.9 -22.8 5.5 -28Q8.1 -33.3 12.6 -36.1Q17.2 -39 22.8 -39Q28.2 -39 30.8 -36.5Q33.5 -34 33.5 -29.9Q33.5 -27.1 32.5 -25.5Q31.6 -23.9 29.7 -23.9Q28.5 -23.9 27.7 -24.5Q27 -25.1 27 -26.1Q27 -26.6 27.1 -27.7Q27.4 -29 27.4 -29.7Q27.4 -31.6 26.2 -32.7Q25.1 -33.8 22.3 -33.8Q19 -33.8 16.1 -31.8Q13.2 -29.9 11.5 -26.1Q9.7 -22.2 9.7 -16.8Q9.7 -11.3 12.7 -8.3Q15.7 -5.3 21.4 -5.3Q24.6 -5.3 28.1 -6.7L28.7 -12.3H24Q22.7 -12.3 22 -12.9Q21.3 -13.6 21.3 -15Q21.3 -16.3 22 -17Q22.7 -17.8 23.9 -17.8H32.5Q33.5 -17.8 34.2 -17.1Q34.8 -16.4 34.7 -15.2Q34.5 -13.7 33.8 -8.5L33.3 -5Q36.9 -7.8 40 -9.8Q40.6 -10.2 41 -10.2Q41.6 -10.2 42 -9.6Q42.3 -9 42.3 -8.1ZM26.3 5Q22.8 8 21.2 10.4Q19.7 12.8 19.7 14.7Q19.7 16.5 21 16.5Q22.2 16.5 23.6 13.8Q25 11 26.3 5Z M41.7 -27.9Q41.7 -29.5 42.9 -30.6Q44.2 -31.6 46.1 -31.6Q47.8 -31.6 48.9 -30.8Q49.9 -30 49.9 -28.5Q49.9 -26.6 48.7 -25.6Q47.5 -24.5 45.5 -24.5Q43.6 -24.5 42.6 -25.4Q41.7 -26.3 41.7 -27.9ZM39.5 -7.5Q39.5 -9.6 40 -12.8Q40.5 -16.1 41.4 -18.9Q41.8 -20.3 42.5 -20.9Q43.1 -21.4 44.7 -21.4Q47 -21.4 47 -19.9Q47 -18.7 46.1 -14.5Q45 -9.5 45 -7.7Q45 -6.3 45.4 -5.6Q45.8 -4.8 46.6 -4.8Q47.5 -4.8 48.7 -6Q50 -7.1 52 -9.6Q52.6 -10.3 53.3 -10.3Q53.9 -10.3 54.2 -9.7Q54.6 -9.2 54.6 -8.2Q54.6 -6.3 53.7 -5.3Q49.1 0.2 45.2 0.2Q42.2 0.2 40.8 -1.9Q39.5 -4 39.5 -7.5Z M72.6 -8.2Q72.6 -6.3 71.8 -5.3Q69.8 -2.9 67.4 -1.3Q65.1 0.2 62.1 0.2Q52.7 0.2 52.7 -13Q52.7 -15 52.8 -17.1H51Q49.6 -17.1 49.2 -17.6Q48.7 -18.1 48.7 -19.2Q48.7 -21.8 50.7 -21.8H53.4Q54.1 -26.8 55.8 -31Q57.4 -35.2 59.6 -37.7Q61.9 -40.2 64.5 -40.2Q66.5 -40.2 67.6 -38.5Q68.7 -36.8 68.7 -34.2Q68.7 -27 62.7 -21.8H67.8Q68.6 -21.8 68.9 -21.4Q69.2 -21.1 69.2 -20.2Q69.2 -17.1 64 -17.1H58.4Q58.3 -14.8 58.3 -13.5Q58.3 -8.7 59.5 -6.8Q60.6 -4.8 63 -4.8Q65 -4.8 66.5 -6Q68 -7.2 70.1 -9.6Q70.7 -10.3 71.3 -10.3Q71.9 -10.3 72.3 -9.7Q72.6 -9.2 72.6 -8.2ZM58.9 -22.4Q61.6 -24.8 63 -27.7Q64.3 -30.6 64.3 -33Q64.3 -35.7 63.3 -35.7Q62.6 -35.7 61.8 -34Q60.9 -32.3 60.1 -29.2Q59.4 -26.2 58.9 -22.4Z M112.8 -8.2Q112.8 -6.4 111.9 -5.3Q107.4 0.2 102.2 0.2Q97.8 0.2 95.1 -3.2Q92.4 -6.7 92.4 -13.1Q92.4 -14.7 92.6 -16.2Q89.5 -15.7 85.9 -15.4Q83.5 -15.2 82.7 -15.2Q81.7 -10.5 80.1 -3.7Q79.1 0.3 76.4 0.3Q73.5 0.3 73.5 -2.3Q73.5 -2.9 73.7 -4Q75.3 -10.3 76.2 -14.7L74 -14.6Q72.5 -14.6 71.8 -15.1Q71.1 -15.6 71.1 -16.8Q71.1 -18.4 71.9 -19.1Q72.8 -19.8 74.8 -19.9L77.3 -20Q78.5 -26.4 78.5 -29.9Q78.5 -32 77.8 -32.8Q77.2 -33.6 76.1 -33.6Q72.9 -33.6 68.9 -28.2Q68.3 -27.4 67.5 -27.4Q66.9 -27.4 66.4 -28Q66 -28.6 66 -29.5Q66 -31 67.1 -32.6Q69.1 -35.4 72.2 -37.2Q75.3 -39 78.5 -39Q81.5 -39 83.1 -37Q84.7 -34.9 84.7 -30.6Q84.7 -26.8 83.6 -20.2L88.1 -20.5Q91 -20.6 93.1 -20.9Q93.9 -26 95.6 -30.4Q97.3 -34.8 99.9 -37.6Q102.4 -40.3 105.5 -40.3Q107.8 -40.3 109.2 -38.5Q110.5 -36.7 110.5 -33.8Q110.5 -22.4 98.9 -17.9Q98.7 -16.1 98.7 -14.1Q98.7 -9.3 99.9 -7.3Q101.1 -5.2 103.3 -5.2Q105.2 -5.2 106.7 -6.2Q108.3 -7.2 110.3 -9.6Q110.8 -10.3 111.5 -10.3Q112.1 -10.3 112.4 -9.7Q112.8 -9.2 112.8 -8.2ZM99.4 -22.5Q103.1 -24.1 104.8 -26.9Q106.6 -29.7 106.6 -34.1Q106.6 -35.1 106.2 -35.7Q105.8 -36.3 105.3 -36.3Q104.3 -36.3 103.2 -34.5Q102 -32.7 101 -29.5Q100 -26.3 99.4 -22.5Z M109.1 -6.4Q109.1 -9.9 109.5 -12.8Q110 -15.6 111 -18.9Q111.5 -20.2 112.3 -20.8Q113.2 -21.4 115 -21.4Q116 -21.4 116.4 -21.1Q116.7 -20.8 116.7 -20.1Q116.7 -19.8 116.2 -17.7Q115.8 -16 115.5 -14.6Q114.6 -9.8 114.6 -8.1Q114.6 -7.2 114.8 -6.8Q115 -6.4 115.6 -6.4Q116.2 -6.4 117.3 -7.8Q118.3 -9.2 119.5 -12Q120.7 -14.8 121.8 -18.9Q122.1 -20.2 122.9 -20.8Q123.6 -21.4 125.2 -21.4Q126.2 -21.4 126.6 -21.2Q127.1 -20.9 127.1 -20.2Q127.1 -19.1 125.9 -13.9Q124.6 -8.1 124.6 -6.7Q124.6 -5.8 125 -5.3Q125.4 -4.8 125.9 -4.8Q126.9 -4.8 128.1 -6Q129.4 -7.1 131.5 -9.6Q132.1 -10.3 132.8 -10.3Q133.4 -10.3 133.7 -9.7Q134 -9.2 134 -8.2Q134 -6.3 133.2 -5.3Q131.2 -2.9 128.9 -1.3Q126.6 0.2 123.7 0.2Q121.5 0.2 120.5 -1.5Q119.5 -3.2 119.5 -6.3Q118.7 -3.1 117.1 -1.4Q115.6 0.2 113.8 0.2Q111.7 0.2 110.4 -1.7Q109.1 -3.6 109.1 -6.4Z M156 -12Q156 -10.9 155.7 -10.2Q155.4 -9.6 154.7 -9.4Q151.9 -8.4 148.6 -8.3Q147.7 -4.5 145.2 -2.1Q142.6 0.2 139.5 0.2Q134.9 0.2 132.8 -3.3Q130.6 -6.9 130.6 -13.6Q130.6 -19.5 132.1 -26.5Q133.6 -33.4 136.4 -38.3Q139.2 -43.2 143.2 -43.2Q145.3 -43.2 146.6 -41.4Q147.8 -39.6 147.8 -36.7Q147.8 -32.9 146.4 -29.2Q145 -25.5 141.7 -21.4Q144.8 -21.2 146.7 -18.8Q148.6 -16.5 149 -13.1Q151.2 -13.2 154.1 -14Q154.4 -14.1 154.8 -14.1Q155.4 -14.1 155.7 -13.5Q156 -12.9 156 -12ZM136.7 -18.3Q139.7 -23.8 141.6 -28.1Q143.4 -32.3 143.4 -35.6Q143.4 -37.1 143 -37.9Q142.7 -38.7 142.1 -38.7Q141.2 -38.7 140.1 -35.9Q139 -33.2 138.1 -28.5Q137.2 -23.8 136.7 -18.3ZM143.7 -9.3Q142.3 -10.3 141.5 -11.8Q140.8 -13.4 140.8 -15.1Q140.8 -15.8 140.9 -16.9H140.8Q138.9 -16.9 137.7 -15Q136.4 -13.2 136.4 -10Q136.4 -7.4 137.4 -6Q138.4 -4.6 139.7 -4.6Q141.1 -4.6 142.2 -5.8Q143.3 -7 143.7 -9.3Z  M163.6 -9.1Q163.6 -11.6 164.5 -12.9Q165.4 -14.3 167.1 -14.3Q168.3 -14.3 169.1 -13.6Q169.9 -13 169.9 -12Q169.9 -11 169.7 -10.3Q169.7 -10.2 169.7 -9.7Q169.6 -9.2 169.6 -8.7Q169.6 -6.7 171.7 -5.7Q173.8 -4.6 177.6 -4.6Q181.5 -4.6 183.7 -6Q185.9 -7.5 185.9 -10Q185.9 -11.5 184.9 -12.7Q183.9 -13.8 182.3 -14.6Q180.8 -15.3 178.1 -16.4Q174.5 -17.8 172.3 -19Q170.1 -20.3 168.5 -22.4Q166.9 -24.6 166.9 -27.7Q166.9 -31.1 168.7 -33.6Q170.4 -36.2 173.8 -37.6Q177.1 -39.1 181.6 -39.1Q185 -39.1 187.8 -38.1Q190.6 -37.1 192.3 -35.1Q193.9 -33 193.9 -30.1Q193.9 -27.2 193.1 -25.7Q192.2 -24.2 190.5 -24.2Q189.3 -24.2 188.5 -25Q187.7 -25.7 187.7 -26.7Q187.7 -27.6 187.8 -28.3Q188 -29.7 188 -30.1Q188 -32 186.1 -33Q184.2 -34 181.4 -34Q177.4 -34 175.3 -32.6Q173.2 -31.1 173.2 -28.5Q173.2 -26.8 174.3 -25.5Q175.4 -24.3 177 -23.5Q178.6 -22.6 181.5 -21.5Q185 -20.1 187.1 -18.9Q189.2 -17.8 190.7 -15.8Q192.2 -13.8 192.2 -10.9Q192.2 -5.5 188.1 -2.6Q184 0.4 177.1 0.4Q171 0.4 167.3 -2Q163.6 -4.3 163.6 -9.1Z M217.9 -8.2Q217.9 -6.3 217.1 -5.3Q215.1 -2.9 212.8 -1.3Q210.4 0.2 207.4 0.2Q198 0.2 198 -13Q198 -15 198.1 -17.1H196.3Q194.9 -17.1 194.5 -17.6Q194 -18.1 194 -19.2Q194 -21.8 196.1 -21.8H198.7Q199.5 -26.8 201.1 -31Q202.7 -35.2 205 -37.7Q207.2 -40.2 209.9 -40.2Q211.8 -40.2 212.9 -38.5Q214 -36.8 214 -34.2Q214 -27 208 -21.8H213.2Q213.9 -21.8 214.2 -21.4Q214.5 -21.1 214.5 -20.2Q214.5 -17.1 209.3 -17.1H203.7Q203.6 -14.8 203.6 -13.5Q203.6 -8.7 204.8 -6.8Q205.9 -4.8 208.3 -4.8Q210.3 -4.8 211.8 -6Q213.3 -7.2 215.4 -9.6Q216 -10.3 216.7 -10.3Q217.3 -10.3 217.6 -9.7Q217.9 -9.2 217.9 -8.2ZM204.2 -22.4Q206.9 -24.8 208.3 -27.7Q209.6 -30.6 209.6 -33Q209.6 -35.7 208.6 -35.7Q207.9 -35.7 207.1 -34Q206.2 -32.3 205.5 -29.2Q204.7 -26.2 204.2 -22.4Z M213.6 -7.3Q213.6 -10.9 215.3 -14.2Q217 -17.5 219.9 -19.5Q222.7 -21.5 225.9 -21.5Q226.9 -21.5 227.2 -21.1Q227.6 -20.7 227.8 -19.7Q228.8 -19.9 229.8 -19.9Q232.1 -19.9 232.1 -18.3Q232.1 -17.3 231.4 -13.7Q230.3 -8.4 230.3 -6.3Q230.3 -5.7 230.7 -5.2Q231 -4.8 231.6 -4.8Q232.4 -4.8 233.7 -6Q234.9 -7.1 237 -9.6Q237.6 -10.3 238.3 -10.3Q238.9 -10.3 239.2 -9.7Q239.6 -9.2 239.6 -8.2Q239.6 -6.3 238.7 -5.3Q236.8 -3 234.7 -1.4Q232.6 0.2 230.6 0.2Q229.1 0.2 227.8 -0.8Q226.6 -1.8 225.9 -3.6Q223.5 0.2 219.9 0.2Q217 0.2 215.3 -1.8Q213.6 -3.9 213.6 -7.3ZM224.8 -8.8 226.5 -17.2Q224.6 -17.2 222.9 -15.8Q221.3 -14.4 220.3 -12.1Q219.4 -9.8 219.4 -7.2Q219.4 -5.8 219.9 -5.1Q220.5 -4.4 221.5 -4.4Q222.5 -4.4 223.5 -5.6Q224.4 -6.8 224.8 -8.8Z M257.6 -8.2Q257.6 -6.3 256.8 -5.3Q254.8 -2.9 252.4 -1.3Q250.1 0.2 247.1 0.2Q237.7 0.2 237.7 -13Q237.7 -15 237.8 -17.1H236Q234.6 -17.1 234.2 -17.6Q233.7 -18.1 233.7 -19.2Q233.7 -21.8 235.8 -21.8H238.4Q239.2 -26.8 240.8 -31Q242.4 -35.2 244.7 -37.7Q246.9 -40.2 249.5 -40.2Q251.5 -40.2 252.6 -38.5Q253.7 -36.8 253.7 -34.2Q253.7 -27 247.7 -21.8H252.9Q253.6 -21.8 253.9 -21.4Q254.2 -21.1 254.2 -20.2Q254.2 -17.1 249 -17.1H243.4Q243.3 -14.8 243.3 -13.5Q243.3 -8.7 244.5 -6.8Q245.6 -4.8 248 -4.8Q250 -4.8 251.5 -6Q253 -7.2 255.1 -9.6Q255.7 -10.3 256.4 -10.3Q257 -10.3 257.3 -9.7Q257.6 -9.2 257.6 -8.2ZM243.9 -22.4Q246.6 -24.8 248 -27.7Q249.3 -30.6 249.3 -33Q249.3 -35.7 248.3 -35.7Q247.6 -35.7 246.8 -34Q245.9 -32.3 245.2 -29.2Q244.4 -26.2 243.9 -22.4Z M257.6 -2.3Q257.6 -3.5 258.4 -4.4Q259.3 -5.3 261 -5.3Q261.6 -5.3 262.4 -5.2Q263.2 -5.1 263.6 -5Q263.6 -6.2 263.1 -7.3Q262.6 -8.3 261.9 -9.3Q261.1 -10.3 260.5 -11Q259.1 -8.3 257.7 -6.5Q256.3 -4.7 254.6 -3.1Q253.8 -2.3 252.9 -2.3Q252.1 -2.3 251.7 -2.8Q251.2 -3.4 251.2 -4.1Q251.2 -5.1 251.8 -5.8L252.4 -6.6Q255 -9.7 256.3 -11.7Q257 -13.1 258.1 -15.3Q259.2 -17.5 260.2 -19.9Q261.1 -21.9 263.8 -21.9Q265.1 -21.9 265.6 -21.7Q266.1 -21.5 266.1 -21Q266.1 -20.7 265.9 -20.1Q265.7 -19.5 265.4 -18.9Q264.6 -17.2 264.6 -16.1Q264.6 -15.4 265.1 -14.6Q265.6 -13.8 266.6 -12.5Q268 -10.6 268.8 -9.2Q269.6 -7.9 269.6 -6.3Q269.6 -5.8 269.5 -5Q271.7 -5.8 274.8 -9.6Q275.3 -10.3 276 -10.3Q276.6 -10.3 276.9 -9.7Q277.3 -9.2 277.3 -8.2Q277.3 -6.4 276.4 -5.3Q274.1 -2.5 272 -1.4Q269.9 -0.4 266.8 -0.3Q265 1.2 262.5 1.2Q260.1 1.2 258.8 0.1Q257.6 -1 257.6 -2.3Z" fill="url(#pg)" /><g transform="translate(324,46)"><path d="M0,.9 C-1.5,-.3 -1,-1.1 -.45,-1.1 C-.15,-1.1 0,-.85 0,-.7 C0,-.85 .15,-1.1 .45,-1.1 C1,-1.1 1.5,-.3 0,.9Z" fill="#F27FBC" transform="scale(9)"><animateTransform attributeName="transform" type="scale" values="8;11;8" dur="1.8s" begin="0s" repeatCount="indefinite"/></path></g><g transform="translate(676,46)"><path d="M0,.9 C-1.5,-.3 -1,-1.1 -.45,-1.1 C-.15,-1.1 0,-.85 0,-.7 C0,-.85 .15,-1.1 .45,-1.1 C1,-1.1 1.5,-.3 0,.9Z" fill="#F27FBC" transform="scale(9)"><animateTransform attributeName="transform" type="scale" values="8;11;8" dur="1.8s" begin="0.8s" repeatCount="indefinite"/></path></g><g transform="translate(290.323,28)"><path d="M0,-1 C.14,-.3 .3,-.14 1,0 C.3,.14 .14,.3 0,1 C-.14,.3 -.3,.14 -1,0 C-.3,-.14 -.14,-.3 0,-1Z" fill="#B98BE8" transform="scale(7)"><animate attributeName="opacity" values=".15;1;.15" dur="2.6s" begin="0.3s" repeatCount="indefinite"/><animateTransform attributeName="transform" type="scale" values="4.20;7.00;4.20" dur="2.6s" begin="0.3s" repeatCount="indefinite"/></path></g><g transform="translate(709.677,64)"><path d="M0,-1 C.14,-.3 .3,-.14 1,0 C.3,.14 .14,.3 0,1 C-.14,.3 -.3,.14 -1,0 C-.3,-.14 -.14,-.3 0,-1Z" fill="#B98BE8" transform="scale(7)"><animate attributeName="opacity" values=".15;1;.15" dur="2.6s" begin="1.1s" repeatCount="indefinite"/><animateTransform attributeName="transform" type="scale" values="4.20;7.00;4.20" dur="2.6s" begin="1.1s" repeatCount="indefinite"/></path></g></svg>