<svg xmlns="http://www.w3.org/2000/svg" width="1000" height="188" viewBox="0 0 1000 188"><defs><filter id="sh" x="-10%" y="-10%" width="120%" height="135%"><feDropShadow dx="0" dy="6" stdDeviation="7" flood-color="#E85A9B" flood-opacity=".17"/></filter>
<linearGradient id="card" x1="0" y1="0" x2="0" y2="1"><stop offset="0" stop-color="#FFFFFF"/><stop offset="1" stop-color="#FFF0F7"/></linearGradient>
<linearGradient id="shim" x1="0" x2="1"><stop offset="0" stop-color="#fff" stop-opacity="0"/><stop offset=".5" stop-color="#fff" stop-opacity=".85"/><stop offset="1" stop-color="#fff" stop-opacity="0"/></linearGradient>
<linearGradient id="pg" x1="0" x2="1"><stop offset="0" stop-color="#E85A9B"/><stop offset="1" stop-color="#B98BE8"/></linearGradient><clipPath id="t0"><rect x="14.0" y="14" width="228.0" height="150" rx="26"/></clipPath><linearGradient id="gt0" x1="0" y1="0" x2="0" y2="1"><stop offset="0" stop-color="#fff"/><stop offset="1" stop-color="#FFE3F1"/></linearGradient><clipPath id="t1"><rect x="262.0" y="14" width="228.0" height="150" rx="26"/></clipPath><linearGradient id="gt1" x1="0" y1="0" x2="0" y2="1"><stop offset="0" stop-color="#fff"/><stop offset="1" stop-color="#FFD6EA"/></linearGradient><clipPath id="t2"><rect x="510.0" y="14" width="228.0" height="150" rx="26"/></clipPath><linearGradient id="gt2" x1="0" y1="0" x2="0" y2="1"><stop offset="0" stop-color="#fff"/><stop offset="1" stop-color="#FFC9E2"/></linearGradient><clipPath id="t3"><rect x="758.0" y="14" width="228.0" height="150" rx="26"/></clipPath><linearGradient id="gt3" x1="0" y1="0" x2="0" y2="1"><stop offset="0" stop-color="#fff"/><stop offset="1" stop-color="#FCBBDB"/></linearGradient></defs><style>text{font-family:'Segoe UI',system-ui,-apple-system,Helvetica,Arial,sans-serif}</style><rect x="14.0" y="14" width="228.0" height="150" rx="26" fill="url(#gt0)" stroke="#FFC9E2" stroke-width="2.5" filter="url(#sh)"/><g clip-path="url(#t0)"><rect x="-90" y="-10" width="70" height="170" fill="url(#shim)" opacity=".7" transform="skewX(-18)"><animateTransform attributeName="transform" type="translate" additive="sum" values="0 0;0 0;1160 0" keyTimes="0;.55;1" dur="7s" begin="0.0s" repeatCount="indefinite"/></rect></g><g transform="translate(128.0,70)"><g><animateTransform attributeName="transform" type="translate" values="0 0;0 -3;0 0" dur="3.2s" begin="0.0s" repeatCount="indefinite"/><circle r="34" fill="#fff" stroke="#E85A9B" stroke-width="2.5"/><circle r="27" fill="#FFE3F1"/><g fill="none" stroke="#E85A9B" stroke-width="1.9" stroke-linecap="round" stroke-linejoin="round" transform="translate(-17,-17) scale(1.417)"><path d="M12 19v3" />
  <path d="M19 10v2a7 7 0 0 1-14 0v-2" />
  <rect x="9" y="2" width="6" height="13" rx="3" /></g></g></g><text x="128.0" y="132" text-anchor="middle" font-size="17" font-weight="800" letter-spacing="1" fill="#704C5C">Multilingual Voice</text><rect x="262.0" y="14" width="228.0" height="150" rx="26" fill="url(#gt1)" stroke="#FCBBDB" stroke-width="2.5" filter="url(#sh)"/><g clip-path="url(#t1)"><rect x="-90" y="-10" width="70" height="170" fill="url(#shim)" opacity=".7" transform="skewX(-18)"><animateTransform attributeName="transform" type="translate" additive="sum" values="0 0;0 0;1160 0" keyTimes="0;.55;1" dur="7s" begin="0.7s" repeatCount="indefinite"/></rect></g><g transform="translate(376.0,70)"><g><animateTransform attributeName="transform" type="translate" values="0 0;0 -3;0 0" dur="3.2s" begin="0.45s" repeatCount="indefinite"/><circle r="34" fill="#fff" stroke="#D63F85" stroke-width="2.5"/><circle r="27" fill="#FFD6EA"/><g fill="none" stroke="#D63F85" stroke-width="1.9" stroke-linecap="round" stroke-linejoin="round" transform="translate(-17,-17) scale(1.417)"><path d="M12 18V5" />
  <path d="M15 13a4.17 4.17 0 0 1-3-4 4.17 4.17 0 0 1-3 4" />
  <path d="M17.598 6.5A3 3 0 1 0 12 5a3 3 0 1 0-5.598 1.5" />
  <path d="M17.997 5.125a4 4 0 0 1 2.526 5.77" />
  <path d="M18 18a4 4 0 0 0 2-7.464" />
  <path d="M19.967 17.483A4 4 0 1 1 12 18a4 4 0 1 1-7.967-.517" />
  <path d="M6 18a4 4 0 0 1-2-7.464" />
  <path d="M6.003 5.125a4 4 0 0 0-2.526 5.77" /></g></g></g><text x="376.0" y="132" text-anchor="middle" font-size="17" font-weight="800" letter-spacing="1" fill="#704C5C">RAG + AI</text><rect x="510.0" y="14" width="228.0" height="150" rx="26" fill="url(#gt2)" stroke="#FAAAD2" stroke-width="2.5" filter="url(#sh)"/><g clip-path="url(#t2)"><rect x="-90" y="-10" width="70" height="170" fill="url(#shim)" opacity=".7" transform="skewX(-18)"><animateTransform attributeName="transform" type="translate" additive="sum" values="0 0;0 0;1160 0" keyTimes="0;.55;1" dur="7s" begin="1.4s" repeatCount="indefinite"/></rect></g><g transform="translate(624.0,70)"><g><animateTransform attributeName="transform" type="translate" values="0 0;0 -3;0 0" dur="3.2s" begin="0.9s" repeatCount="indefinite"/><circle r="34" fill="#fff" stroke="#F27FBC" stroke-width="2.5"/><circle r="27" fill="#FFC9E2"/><g fill="none" stroke="#F27FBC" stroke-width="1.9" stroke-linecap="round" stroke-linejoin="round" transform="translate(-17,-17) scale(1.417)"><rect width="14" height="20" x="5" y="2" rx="2" ry="2" />
  <path d="M12 18h.01" /></g></g></g><text x="624.0" y="132" text-anchor="middle" font-size="17" font-weight="800" letter-spacing="1" fill="#704C5C">IVR / WhatsApp / PWA</text><rect x="758.0" y="14" width="228.0" height="150" rx="26" fill="url(#gt3)" stroke="#FFF0F7" stroke-width="2.5" filter="url(#sh)"/><g clip-path="url(#t3)"><rect x="-90" y="-10" width="70" height="170" fill="url(#shim)" opacity=".7" transform="skewX(-18)"><animateTransform attributeName="transform" type="translate" additive="sum" values="0 0;0 0;1160 0" keyTimes="0;.55;1" dur="7s" begin="2.0999999999999996s" repeatCount="indefinite"/></rect></g><g transform="translate(872.0,70)"><g><animateTransform attributeName="transform" type="translate" values="0 0;0 -3;0 0" dur="3.2s" begin="1.35s" repeatCount="indefinite"/><circle r="34" fill="#fff" stroke="#B98BE8" stroke-width="2.5"/><circle r="27" fill="#FCBBDB"/><g fill="none" stroke="#B98BE8" stroke-width="1.9" stroke-linecap="round" stroke-linejoin="round" transform="translate(-17,-17) scale(1.417)"><rect width="18" height="11" x="3" y="11" rx="2" ry="2" />
  <path d="M7 11V7a5 5 0 0 1 10 0v4" /></g></g></g><text x="872.0" y="132" text-anchor="middle" font-size="17" font-weight="800" letter-spacing="1" fill="#704C5C">Privacy + Audit</text></svg>